<svg id="Layer_1" data-name="Layer 1" xmlns="http://www.w3.org/2000/svg" viewBox="0 0 595.28 841.89"><defs><style>.cls-1{fill:#8a1c25;}.cls-2{fill:#fff;}</style></defs><path class="cls-1" d="M595.29,453.93V22.41H2.23V454.16c-.06,6.3-.43,158,107.59,248l-.23-.19c3.39,3,84.18,73.85,184.57,117.11l2,.84h5.38l2.08-1c96.64-44.82,184.75-116,185.66-116.68C597.44,612.14,595.43,460.36,595.29,453.93Zm-20.63,1.15c0,12.75-2.28,151.11-98.47,231.18-.8.61-84.71,68.35-177.51,112.18-95.63-42.09-174.66-111.28-175.46-112l-.22-.2C24,603.85,22.85,459.68,22.85,454.4V259.34H574.66V455.08Z"/><polygon class="cls-2" points="24.02 44.4 24.02 48.61 574.86 48.61 574.86 44.4 24.02 44.4 24.02 44.4"/><polygon class="cls-2" points="24.02 162.31 24.02 166.54 574.86 166.54 574.86 162.31 24.02 162.31 24.02 162.31"/><polygon class="cls-2" points="22.79 232.73 22.79 236.94 573.63 236.94 573.63 232.73 22.79 232.73 22.79 232.73"/><path class="cls-1" d="M252.32,729.37h7.58c1,0,.65-1,.65-1a70.41,70.41,0,0,1-.88-27.47s.31-1-.78-1H251.4c-1,0-.64.78-.64.78,2.55,10.47,1.56,23.74.9,27.56,0,0-.47,1,.66,1Z"/><path class="cls-1" d="M280.41,699.15c-12.07,1.17-11.34,15.3-11.34,15.3.76,12.81,14,15.23,14,15.23-3.62,9.82-13.31,12.73-13.31,12.73-2.28.88-.59,1.54-.59,1.54,2.87,1,7.1-.74,7.1-.74,17.7-7.94,18.17-26.5,18.17-26.5.37-18.93-14-17.56-14-17.56m4.31,26c-5.79.19-7.17-8.8-7.17-8.8-1.5-9.88,2.34-10.43,2.34-10.43,4.07-1.3,5.83,7.12,5.83,7.12,2,9.67-1,12.11-1,12.11Z"/><path class="cls-1" d="M325.1,710.61s-1.6-11.75-12.6-11.6c0,0-10.88-.29-11.4,14.8,0,0-.41,15.91,13.35,15.23,0,0,13.49-.84,10.65-18.43M314.63,724c-5.19,1.91-5.77-8.72-5.77-8.72-.55-10.16,3.58-11.17,3.58-11.17,4.18-1.05,5.35,6.43,5.35,6.43,1.89,11.55-3.16,13.46-3.16,13.46Z"/><path class="cls-1" d="M328.33,733.11c11.64,2.3,14.72-5.93,14.72-5.93,3.69-11.69-10.88-12.26-10.88-12.26l2.34-15s14.63.7,18.58-1.27c0,0,.9-.62.39,1.6,0,0-.82,5-5.61,5.36l-7.2.59-.68,4.25s12.46-.26,12.23,13.18c0,0-.47,10.41-12.62,13a22.73,22.73,0,0,1-12.28-1.42s-1-.49-.45-1.27a1.36,1.36,0,0,1,1.46-.76Z"/><path class="cls-1" d="M285.46,451.36c.92-1.1,2.11-.32,3.1,0s1,2.1,1.5,3c.28.66,2.11,2.49,2.28,3.06,1.47,6.78,0,15.65-3,20.78a4.41,4.41,0,0,1-3.25,2.46c-1.27.11-1.7-1.76-2.13-2.46-1.95-2.73-.47-9.2,0-12.24.51-3.9-2.55-10.16-.6-13,0,0,2.1-1.63,2.14-1.63Z"/><path class="cls-1" d="M193.42,458.51c1.64-.49,4,.33,5,0l2.21-.9c2.55-1.67,5.1-1.17,7.68-.93,1.3.17,5.14,1.83,6.41,1.87,2.05.23,11.72,1.27,22,2.77-.1,0,5.48-.76,4.08-2.3.87,1-.16-.82-2.25-1.56l-.74-.78c.1-.08-1.77-1.54,1.54-2.67a8.39,8.39,0,0,0,2.85-1.23c1.33-1.42-.62-2.95-.62-2.95-4.86-1.65-10.32,1.47-17.63.71-3.62-.28-8.73-2.36-13.8-1.52-5.54,1-13.65,4.09-17.51,7.11,0,0-1.85,3.22.74,2.38Z"/><path class="cls-1" d="M255,418.64c5-.31,5.19,4.86,5.3,4.31-.56,3.7-9.59,4-11.75,6.9-6.32,8.21-3.67,16.07-18.62,16.92,0,0-3-.7-1.85-1.93.95-1,4.56-1.95,5.9-2.76,1.93-1.12,1.78-4.22,3.06-6.13.26-.48,1.93-1.07,2.34-1.48,4.18-5.67,4.68-11.4,12.07-14.76a28.4,28.4,0,0,1,3.55-1.07Z"/><path class="cls-1" d="M302.81,396.51c1.7-1,3.38,0,4.49,1,.66.47,6.12,13.57,6.37,14.87.7,4.76,1.23,15.74-.06,19.25-1.83,4.91-6.37,8.69-5.4,17.41.55,5.12,2.81,9.1,4.94,13.55.27.74,2.51,5.1,2.63,6,.82,4.7-1.72,10.76-2.11,14.54-1.15,9.44,2.62,18,1.13,27a14.37,14.37,0,0,1-4,8.24l-1.7,1.43c-.45,1-1.32,1.26-2.16,1.93l-1,1c-1.61.37-1.77,1.32-2.41,1.4-4,.88-4.88-1.46-4.62-.93-4.1-11.53,2.78-25-.74-36.19-.82-2.57-3.83-5.11-4.22-7.85-1.42-10,7.94-15.27,7.8-22,0-4.81-6.31-11-7.72-15.73-1.79-5.56-3-16.16-.54-23.08.56-1.68,2.75-4.49,3.33-6.73,1.15-4.31,2.94-7.87,3.53-10.74a16.17,16.17,0,0,1,1.23-3,7,7,0,0,1,1.3-1.45Z"/><path class="cls-1" d="M422.11,372.63c6.76-.78,9.79,1.89,6.63,7.64l-1.33,1.25c-.54.2-2.34,2.54-2.71,2.87-3.27,2.4-6.35,3.88-8.83,6.94-.84,1-1.54,3.64-2.61,4.54a47.93,47.93,0,0,1-9.79,4.33c-8.17,1.32-19.3-6.84-20.53-11.56-1.05-4,0-8,1.76-8.89,2.76-1.39,10-.67,12.53-.92,6.3-.47,10.26-.14,15.09-1.81,2.93-.94,6.28-4,9.79-4.39Z"/><path class="cls-1" d="M387.27,369.92a13.49,13.49,0,0,0,7.29.76c2.4-.62,6.92-2.67,9.18-3.08,1.37-.33,3.3.37,4.64,0,3.73-1.13,10.61-8.42,2.38-9.22-3-.29-11.91,3.08-14.68,3.86a27.43,27.43,0,0,0-6.82,2.38c-.61.35-3.8,3-3.43,2.53,0,0-2.11,1.74,1.44,2.77Z"/><path class="cls-1" d="M328.47,383.72c-2.42-.33-2.42-4.38-8.46-3.06-4.23.88-5.38,7.08-11.52,6.92l-3.06-1.5c-2.69-.64-4.57.28-6.94-.85-10.82-5.07,8.4-31,14.6-30.69a19.84,19.84,0,0,1,3.92,1.52c1.91,1.68,1.91,8.93,3.74,11.54,1.4,1.85,3.55,1.7,5.44,3.08s5.65,6.59,6.1,9.26c0,0,1,4.43-3.82,3.78Z"/><path class="cls-1" d="M428.41,593.52c.13-.14.13-.16,0,0Z"/><path class="cls-1" d="M428.41,593.52l0,0h0s0,0,0,0Z"/><path class="cls-1" d="M514.6,365.2s0,.08,0,.14,0,0,0,0a1.84,1.84,0,0,1-.06-.18Z"/><path class="cls-1" d="M417.64,357.89a2.71,2.71,0,0,0,.18-.41c-.21.43-.25.49-.18.41Z"/><path class="cls-1" d="M370.93,489s-.13,0-.17,0c.17.1.19.1.17,0Z"/><path class="cls-1" d="M281.86,385.65c-4.18,2.34-13.3,5.93-15.21,10-1.09,2.14-1.09,4-1.95,6.55-.1.27-1.25.72-1.6,1.5-4.46,0-8.38-.29-12.26.76-3,.84-7.37,4.07-10.71,4.64-6.84,1.17-12.08-1.87-18.44-.78-2.88.51-4.7,3.45-7,4.64-2,1-2.82,1-4.38,2.38L208.86,417a24,24,0,0,1-1.36,2.91,15.17,15.17,0,0,0-2.3,6.47,43.21,43.21,0,0,1-2.73,9.61c-.55,1-3.45,3.38-3.88,4.35-.2.66-.84,1.31,0,2.3-1-1.09-.78,1.07,4.74,1.35,6.1.13,19.34-3.92,19.34-3.92L229,436.6c1.25-1,6.18-4.7,7.25-6,4.64-5.73,17-26.69,26.69-21.21l1.72,1.23c2.3,3.88-.59,14.93-2.32,17.47l-2.18,2.59c-1.74.55-2.93,5-3.18,7.08-.41,3.33.56,6.31.78,8.15.52,4,.93,9-1.52,13.92a7.6,7.6,0,0,0-1.56,5.32c.45,3,4.72,5.22,5.34,7.72.39,1.25,1.48,1.46,0,3.84-.8,1.29-4.31,3.49-5.34,4.62-1.39,1.4-.2,3.61.74,4.5,2.67,2.4,4.85,2.71,6.92,5.46,2.94,3.78,2.75,7.06,9.24,7.7,5.09.45,12.28.74,9.24-6.18l-1.54-2.59c-1.79-4.52-5-8.56-5.4-13.51-.58-6.28,4.5-9.48,2.36-14.58-1.72-3.9-9.38-3.47-10-8.54-.33-2.83,2.55-8.83,3.1-11.52.6-3.69-.39-6,.78-9.19.78-2.28,4.13-4.83,4.52-7.64.72-5.09-3.22-8.29-1.5-13.84.84-2.85,5.32-2.52,7-4.64,2.13-2.85,1-6.77,2.26-10.78.12-.45,1.23-2.85,1.46-3.26a50.6,50.6,0,0,1,.88-5.15c-.66-3.1-2.61-1.83-2.86-1.93m-48.63,40.54c-4.31,1-4.7-8.19-15-4.62a22,22,0,0,0-3.7,3.29c-1.21,2.73-.55,9.73-1.93,10.39,0,0-4,1-3.22-4.09,1.23-8.07,2.79-9.59,6.88-13a11.08,11.08,0,0,1,2.87-1.77c4.89-1.11,13.88.76,15.5,3.24,1.4,2.06-1.56,6.62-1.35,6.55Z"/><path class="cls-1" d="M514.62,365.34c-.72-3.76-10.9-3.47-15-8.5-1.54-2-.41-3.1,0-4.6,1.15-4.37,10.5-1.76,12.65-5.66.88-1.65,1.19-6.47.62-7.13-5.83-7.16-18.17-3.76-26.88-7.23-4.21-1.72-9.42-5.21-13.84-6.85-5.54-2.14-9.81-2.45-15.35-4.64-1.28-.54-3.72-2.34-5.05-2.88-6.16-2.48-11.05-3-17.19-5.6-.72-.27-2.58-1.34-3.41-1.67-2.46-1-3.22-1.21-5.83-2.15-9.52-3.45-21.59-6.49-35.37-5.63-6,.33-13-.78-22.28,1.87-3.22.8-7.7,3.59-10.71,4.54a48.45,48.45,0,0,0-5.9,1.85c-2.67,1.06-5.05,2.65-8.72,3.51-10.53,2.36-24.64-.23-35.34,1.56-9.3,1.48-14.65,7.33-22.27,10-2.34.76-3.31.53-5.59,1.35a50.91,50.91,0,0,0-5.56,1.91c-3.2,1.64-5.28,2.11-8.87,3.63-1.79.8-3.92,2.47-5.69,3.27a23.72,23.72,0,0,0-4.84,3.18l-1.73,1.27s-3.75,3.29-4.23,3.86c-1.49,1.56-2.91,3.72-4.2,5.34a96.56,96.56,0,0,1-14.64,13.8c-1.77,1.27-3,1-4.56,2.34-1.83,1.4-3.45,2.91-5.2,4.23-4,2.89-8.06,4.8-12.5,7.23l-2.85,1.9c-3.76,2.47-3.6,3.47-7.48,5.92-2.56,1.74-3.65,4.35-6,6.34-1.54,1.19-3.33,4.95-4.35,6.55-4.83,7.06-6.63,17.49-10.08,26.24-1,2.5-9.43,14.6-11.5,15.36l-1.54,1.45a32,32,0,0,0-2.28,2.39c-2.48,2.19-5,3.47-6.9,6.16-1.56,2.09-2.48,4.53-3.9,6.85-2.2,3.62-5.83,7.62-7.66,11.56a43.31,43.31,0,0,0-1.78,4.31c-.21.21-.35.45-.41.45-.93,1.2-2.55,6.16-2.55,6.16-1.7,3.95-5.77,6.16-11.13,13.82-6.26.45-27.88-5-42.58-12,3.31,3.66,19.79,14.74,39.09,16.86-1.27,1.89-1.37,3.82-3.69,4.43-7.74,1.89-21.15-2.32-39.2-8.62,1,2.5,16.94,11.82,40.41,13.24C117.27,511,85,510,59.82,503.1c-1,2.65,31.5,9.88,49.34,9.63-3.06,1.56-11.09,3.39-16.24,5.24-8.13-.91-19.46-2.32-21.66-3.14.51,1.64,8.54,3.84,15.19,5.35-6.38,2.3-15.89,3.62-19.54,4.4,2.69.7,13-1,23.77-3.57,9.47,1.82,24,3.71,31.93,3.34-2,1-9.51,5.83-15.42,9.3C92,535.07,75.55,536.34,72,536.77c2,.31,15.27.54,29.42.17C92.8,542,83.6,547.29,79.14,549.3c6.59-1.67,18.3-6.16,30.29-12.59,11.88-.43,23-1.39,27.65-3.06-1.56,3.47-11.19,20-20.12,23.88,3.86-.64,16.26-4.13,23.78-22.91a26.87,26.87,0,0,0,9.23,2c2,3,6.66,10.64,15.55,11.09,1.8,5.13,18.23,32,41.37,21.49-6.7-3.61-10.72-7.39-14-18.09,10.27-.65,37.43,14.25,45.58,46.45-6.42-2.18-14.45-5.9-15.31-9.12-1.77,7.45-2.92,17,13.53,33.65.32,3.53.28,7.78,1,11.78,2.71,2.86,5.85,5,8.77,7.44.2,4.66-.45,11.08,11.82,14.68,4.17,3.45,17.56,7.12,19.53,9.42,4,1.29,9.92,1.54,14.25,1.29,0,0,5.81-1,7.37-3.22,2.89-.14,6.86-.25,24.64-19.2,3.73-4.45,0-29,.9-34.94,1.76-4.31,2.5-8.31,4.89-13.63,0,0,2.42-5.24,7-7.35a6.62,6.62,0,0,1,.94-.27c10.24-2.3,23.61,7.29,29.91,10,2.3.94,3.51.43,5.38,1.56.88.47,2.16,2.57,3.1,3.1,2.26,1.25,4.42.9,6.94,2.26,3.68,2.05,11.13,12.83,17.64,11.58,2-.48,3.63-5.09,5.36-6.2,3-1.87,7.26-1.71,10-3.8,3.07-2.47,1.8-5.2,2.27-8.5,0-.14,1.46-1.71,1.58-2.36,1.5-.15,4.85,0,6.94-.68a11.38,11.38,0,0,0,1.52-1.52c1.32-1.37.35-2.85,0-4s-3.61-2.69-4.6-3.76c-2.29-2.3-6.26-5.64-7.71-8.44-.72-1.39.16-1.7-.81-3.16s-3.71-3.24-4.51-5.3c-3-6.59-1.79-21.29-3.1-23.34s-2.71-1.72-3.92-3.57c-2.55-4,.61-17.08.82-22.28.22-4.15-3.84-1.56-3.84-1.56-3.37,8.3-3,12-3.82,23.84-.15,1-1.56,7.37-1.56,8.48,0,4.14,2.38,11.19.74,16.13-.54,1.63-3.88,4.73-8.44,4.62-1.72,0-10.33-2.23-12.28-3.07-.37-.19-2.19-2.28-2.32-2.35-4.29-3.38-5.19-.2-5.38,1.5s.58,2.12.95,3.1c.14,1,1.89,4.66,1.7,5s-1.56,4.42-9.55-.31c-6-3.63-12-13.67-12.27-15.39a11.65,11.65,0,0,1,1.09-8.09c3-2.71,6.57,1.06,9.58,2.67a18.59,18.59,0,0,0,3.53,1.88,20,20,0,0,0,5-.32c11.68-.68,23.76,3.55,25.79-4.27,1.31-4.93-3.51-7.58-4.35-9.61-1.11-2.49-.54-2.65-1.17-5.4-.11-.21-.91-2-1.09-2.22-1.21-2.05-.33-3.84-1.52-6.12-1.21-2.5-4.68-4-6.12-6.18-2-2.83-2-6.38-4.66-8.46-3.92-3.22-19.67-7.92-21.52-11.58-3-5.79.72-16.46-.73-23.75A15.71,15.71,0,0,0,347.5,469a4.17,4.17,0,0,1-1.11-3.94c.68-2.57,2-1.87,2.8-7.6.49-3.14-.27-6.69,0-10,0-.53,1.52-5.56,1.6-6.15a67.63,67.63,0,0,0-2.3-23.76c-.91-3-3.72-5.62-4.62-8.5-.82-2.4.14-3.8-.82-6.18-.78-2.11-3.45-3.57-4.54-5.32-2.07-3-1.46-8.25-4.64-10-2.34-1.3-3.18.51-3,0-.76,2.81-.62,5.56.76,9.21.58,1.56,3.43,3.84,3.9,5.4.6,2.82-.47,6.27,0,9.22l1.48,3.1c1.17,7.7-3,17.95-6.14,22.22-2.2,2.87-8.81,6.5-9.2,10.77-.33,2.65.76,2.76,1.44,3.86,1,1.4,4.17,3.25,4.64,4.58.37,1,.76.82,1.15,1.81l.39,2.09c.53,5.38-6.47,6.59-3.06,13,1,1.87,4.25,1.87,6.1,3,3.49,2.22,10.12,8.44,10.76,13.78.28,2.34,0,14.72-.72,16.19-1.58,3.41-10.23,4.75-9.24,11.52,1.09,7.39,20.57,5.32,26.07,9.2,2.61,1.81,3.14,5.77,3.92,9.3.46,1.91-1.47,2.55-2.32,3-2.05,1.21-3.55.28-6.15.84-6.35,1.27-16.47,4.13-19.12,9.22-3.32,5.87.6,13.94-.8,20.67-1.42,6.12-6,13.55-9.32,18.5-2,3-4.62,6-5.58,10.2-2.26,9.06-.68,19.78-1.34,30.41l-.12.1a13.92,13.92,0,0,1-3.33,9.53c-4.23,4.62-18.83,18.31-29.21,18.31-3.84-.12-5.42-1.37-9.63-4.43-2.65-.23-8.73-1.7-12.24-5.36-1.11-2-12.56-13.57-5.36-16.9,6.78-3.12,17.74,3.68,22.81,7,2.08,0,16.9.74,32.63-19.89-.76-10.8-1.63-24.64-2.82-27.16-1.62-5.3-10.57-14.66-12.48-20.27-1.19-4.56-3.33-13.47-1.95-19.65-.58-6.89-4.95-8.43-6.76-14a12.25,12.25,0,0,0-1.41-3,17.48,17.48,0,0,0-2.14-5.67c-2.75-4.19-5.42-5.09-7.9-9.18s-2.16-9.52-6.16-12.28c-2.24-1.47-5.19-1.64-7.68-3.05-1.79-1.09-4.06-3.7-6.14-4.62-2.42-1.07-3.1-1.4-5.56-2.49-1.19-.57-3.37-1.56-4.44-2.09s-2.17-.1-3.08-.82c-2.95-2.53-.82-4.81-2.3-9.18-.12-.53-1.29-.56-1.56-1.54-1.23-.33-3.36-2.28-5.05-1.11-2.3,1.68-2.93,1.19-4.35,4.72-.84,2.3-2.4,9.12-4,10.8A30.72,30.72,0,0,1,223,502a8.07,8.07,0,0,1-3.84.93l-5.75.84-2.85,4.41s-3.14-.43-4.78-.43c-.48,1.07-4.27,4-5.47,5-4.86,2.85-7.84.84-8.17-.2s-1.78-2.86,1.5-4.81c11.27-3.16,25.09-18.23,26.24-21.49-1.44,2.19-24.74,15.07-29.05,16.79,4.62-11,33.2-27.08,34.92-29-7.31,1.09-31.64,15.81-35.89,22.32-4,6.53-8.78,4.72-13.26,4.51s-4,4.56-4.21,7.42c0,2.81-2.21,8.52-.39,9.54,3,2.55,10.86-7.86,13.35-2.26,1.35,6.25-14.78,6-14.66,11-.76,2.67,14.92,3.57,17.8,6.41-5,3.69-17.37,4.88-21,5.05a25.88,25.88,0,0,1-5.54-.09c-2-.34-4.72-2.21-7.06-6.07-4.48-8.11,3.08-13.68,3.2-15.77s-.86-1-1-4.43,3.69-4,4.68-4.71-.29-1.7,0-5c2-7.47,14.16-16.07,11-18.47-2.81-1.5-8.72,5-11,8-8.4,10.8-18.17,7.41-21.48,7.56-7.39.39-6.1-7.7-.92-7.13,5.95-1.23,5.5-9.46,9.75-8.64,1.36,6-5.32,6.88-2.2,8.21,4.25,1.69,4.66-3.88,6-6.22s7.27-7.49,6.59-8.81c-1.75-.59-6.16,2.55-8.15,4.11-4.89-12.13,7.37-21.39,8-25,4-6.34,26.48-14.47,26.89-24.1l.62-.55s.41-.25,1.09.88H188c.14.57.26,1.21.43,1.87a10.49,10.49,0,0,1,0,1.5l.1-.95c.18,1.52.1,2.81.18,2.49v1.45c.21.89,1.34,1.34,1.52,1.42a5.32,5.32,0,0,0,2.88-1.83c.18-.18,1.5-1.43,1.5-1.72a12.74,12.74,0,0,0,4-4c3.88-5.63-3.57-13.86-1.5-21.46,1.42-5.05,6.12-11,6.12-11,1.27-2.9-.74-2.86-.74-2.86a4.84,4.84,0,0,0-4.6,2.22c-3.8,3.57-5,5.3-7.7,10.08,0,0-2.32,2.1-3-.78-1.34-4.76,4.06-14.12,5.74-15.31,3.17-2.16,6.39-3.1,10.33-4.73,2-.82,5-4,6.94-4.55a3.75,3.75,0,0,1,3.06,0s1.48,1.08.78,4.55c0,0-1.52,4.17-1,5.71.33,1,.21,2,2.53,2,5.52.11,17.86-1.19,21.48-3.12.8-.33,1.62-1.54,2.34-2.24,1.15-1.17.86-2.87,0-3.05l-2.34-.79c1.8-.24-10.41-.34-8.44-.71-2.16.37,2.87-5.67,2.3-8.56-.25-1.34-2.65-1.91-3.08-3-.25-.7-1.54-1.71,0-2.32l1.76-.76a11.83,11.83,0,0,1,2.06-1.52c3.88-1.81,10.82-.93,13.83,0,.33.14,5.3,1.52,7,6.14a15.85,15.85,0,0,0,1.5,3.88c2.34,3.16,9.1,4.31,13.06.53a17.15,17.15,0,0,0,2.36-3.57c3.92-9-1.91-15.21-9.3-17.72-3-1.07-7.78-1.37-11.5-2.34-2.62-.74-1-2.94-.3-3.59l1.12-1c1.46-2.15,6-4.08,7.7-4.6,4.07-1.54,8.05-3.06,13.82-.72.86.29,3.1,2.06,3.76,2.24,4.37,1.09,6,1.42,10.06-.7,1.62-.8,1.37-1,1.52-1.49,1.43-4.11-1.42-6.86-1.34-6.41-.84-5.54,15,1.29,17.41-2.2,2.32-3.16.82-9.17,3.88-11.49.33-.19,2.14-1.46,2.3-1.5,2.94-.64,5.51.57,7.87,1.5l2.48,1.19c5,2.07,9.3,3.18,12,7.24,1.68,2.69,1.4,6.55,3,9.28.7,1.15,2.34,1.89,3.18,3.06a10.53,10.53,0,0,0,3,1.93,13.31,13.31,0,0,0,3.84,1.85c1.35.53,3.3,2.59,4.62,3.12,4.68,1.91,10.3,1.64,15.35,1.52,3-.12,4.81,1.64,7.66.78,1.48-.49,1.05-3.08.13-4.17-1.81-2.34-3.23-1.78-6.27-3.51-1.17-.74-2.67-3.1-3.86-3.8-3.49-2.27-8.58-2.6-10.71-6.18a7.41,7.41,0,0,1-.74-2.23l-.86-1.65c-4.23-8.6-5.61-13.71-1.5-15.33,2.54-1,8.09-.41,10.82-1.52.59-.35,1.78-2.08,2.25-2.32,6.1-2.9,17.56-6.28,23.84-3.06,1.91.88,0,5.77.72,7.66a6.31,6.31,0,0,0,3.41,2.73c13.2,3.55,26.36,3,36,7.55,5.79,2.71,10.18,7,15.4,11.48,4.45,4-.84,8.46,3.76,9.79-3.17.41-5.82.76-6.35-.86a11.2,11.2,0,0,0-1.54-2.26c-3.45-3.28-7.47-8.33-12.26-10-2.48-.9-3.57-.14-6.2-.82l-3.08-1c-3.34-.93-3.59-.6-6.85-1.28-1.44-.28-4.74-2.07-6.18-2.24-6.53-1-10.21,1.67-16.16,0-2.75-.8-6.28-5.17-8.52-6.34-2.75-1.56-5.3-2.09-8.4-3.1a3.37,3.37,0,0,0-2.81.14c-1.7,1-1.15,2.51-.27,3.78.52.68.95,1.83,1.54,2.2,2.18,1.56,6.51,1.56,7.68,3.84,3.41,6.69-1.56,9.05-2.3,11-.35,1.22-1.29,2.16,0,3.8a10.31,10.31,0,0,0,3.12,2.26c3.12,1.33,5.59.82,8.48,2.34,2.08,1.09,4.23,4.83,6.9,5.42,6.16,1.32,7.62-3.24,10.74-3.92,4.45-1,7.18,1.38,12.3,0,1.7-.45,2.64-2.44,3.81-3,3-1.56,5.88-1.76,7.72-.82,0,0,2,.94-.8,2.34-1.6.86-2.93.86-4.58,1.7a7.89,7.89,0,0,0-2.29,2.43,10.32,10.32,0,0,0-.85,2.77,4,4,0,0,0,1.56,1.58c5.36,1.85,10.82-1.62,15.4-2.32,3.43-.53,12.92,0,15.67,2.09,0,0,2.54.52.9,5.14-1.05,2.77-5.4,4.78-7,7.12-1,1.34-2,3.86-3,5.15-1.62,2.1-1.91,2-3.55,4L435.56,385c-.66,2-8.5,8.62-10,10.86-.88,1.31-1.29,2.69-2.22,4.13-1.41,2-2.44,2.34-3.16,3.55-2.24,3.24-6.65,9.81-10.3,11.47-1.63.7-3.91-.06-6.18-.51-1.54-.41-3.23-3.26-4.56-3.88-5.38-2.46-11.36-1.74-16.1-4.6-2.36-1.43-4.54-5.56-6.22-7.7-1.13-1.43-2.13-4-3.82-4.66-2.77-.94-9.44-.06-10.74,2.32-2.54,4.83,4.07,17.25,4.62,22.34.41,4.33-1.6,6.32,0,9.94.74,1.87,3.64,2.34,4.58,3.84,4.17,6.57.54,15.83,1.54,24.57.37,2.73,2,6.12,1.5,10-.64,6.14-8.54,11.42-5.34,20.72.13.41,1.6,1.48,1.73,1.6a6.86,6.86,0,0,0,4.43,0c2.57-.88,5.05-6,7.72-7.66a3,3,0,0,1,1.62-.76c.29-.51,1-.58,1.44-.76,1.13-.86,1.58-.88,2.26-2.32,1.09-2.48.72-4.95,1.54-8.5.8-2.94,3.51-8.15,3.86-11.54.94-9.38-5.87-27.8-1-30.81,1.87-1.17,3.74-3.39,7-3.89,1.44-.32,6.06,1.09,8.05,1,0,.06,0,.06,0,.08-2.5,5.9,6.73,21.25,6,29.73-1.79,20.66-15.28,32.07-26.94,43.1-1.34,1.31-.19,2.81.8,3.84,2.3,2.19,7.92,1.23,10.82.76,4.21-.87,6.1-2.78,9.2-3.82,1.15-.48,2.54.26,3.82,0,3.16-.89,5.89-5.18,7.67-7.78,0,0,3.76-4.05,4.56,1.31l.08.29c0,5-.88,10.47,0,15.33.91,5.77,11.44,23.1,16.9,23.86,12.79,1.89-.31-14.23-.82-15.36-2.07-4.9-4.13-13.57-3.82-20,.06-2.34,2-7.11,2.28-9.28.14-1.11-.43-3.66,0-4.54,1-2,7.8-2.73,9.26-5.42.37-.78-.18-2.16,0-3a16.7,16.7,0,0,1,3.1-6.88c.9-1.15,2.22-1.8,3.82,0,1.31,1.48,1.66,4.93,3.86,7.39l1.89,2.08c2.28,1.46,5.95-.47,5-.27,2.36-.66,2.09-3.06,3.1-3.9a14,14,0,0,1,1.5-.72c5.54-5.73-6.8-10.88-6.92-16.18-.13-5.89,1.31-12.69-.74-19.19-.5-1.63-3.51-3.92-3.86-5.36-.82-3.72,1.11-7.64,1.54-10,.86-4.91-.82-12.46.8-14.64.9-1.19,2.38-2.05,5.34-1.54,2,.35,3.26,3.53,4.61,4.62,5,4.05,10.87,6.3,19.24,5.34,1,0,1.89-1.58,2.08-2a5.6,5.6,0,0,0-.54-4.85c-3-4.06-14.74-7.14-15.37-9.18-.46-1.49-2.3-3.51-.27-4.51-1.11.63,7.2-.25,10.22-.89,3.92-.86,4.19-4.74,6.92-6.11,3.8-2,9.43-.25,11.58-3.82,1.25-2.32.27-5.63,1.48-7.74,1.54-2.71,6.1-3.27,8.44-5.42.72-.62.39-3,.22-3.76M205.78,545c-1.52-1.67-.25-4.93,2.54-6.33,5.14-2.42,7.25.39,8.38,1.73,5,7.74,11.41,17.76,16.22,21.72-4.44.45-21-4.62-27.14-17.12m42.27,77.71c-2.69,0-19.79-14.4-17.23-23.35,5.1,3.74,16.45,11.68,17.91,11.52,1.52.9,2.73,10.82-.68,11.83m19.89,0c-2.23-2-18.82-19.49-14.67-27.6,4.53,4.56,17.22,16.22,21.74,17.35,1.27,3.33,1.09,12.48-7.07,10.25m1.77-66.89c2.89,4.35,6.9,6.9,6.67,16.28-.26,2.28.45,2.73,2.41,2.56,1.72-.51.77-11.29,6-10.61,4.46.68,1.44,6.86,3.63,13.8.83,2.48,5.86,11.39,4.5,26.67-.12,3.94-7.62,9.07-11.91,6-3.49-2.11-3.49-4.72-5.5-20.88-.86-9.5-12.48-12.79-17.39-17.14-4.95-3.61-2.13-5.42-3-12-2.83-9.57-14-14-10.26-20.39,1.17-1.58,2.28-3.08,5.83-1.74.18,4.72,11.49,8.39,19,17.43m-79.17-30.18c-.28.14-.33.18.11,0l-.11,0c1.15-.5,6.1-2.82,7.42-3.31,5.25-1.85,8,1,12.87-1.74,1.13-.7,2.42-2.55,3.47-3.41.9-.82,2.56-.72,3.65-1.48,2.67-1.81,7.66-7.53,11.09-8.15,2-.37,2,.14,3,.22,0,.21,1.47-.28,1.08,2.67-.9,5.69,12.47-.08,21.25,2,6,1.43,11.79,3.45,10.25,7.28.2-.39-1.77,1.2-2.22,1.48-4.11,3-7.31-.28-9.4-.57-3.6-.43-6.14.68-9.82.2,0,0-4.41-1.47-4.41-1.47-2.77-.13-6.8,1.31-8.93,1.47-4,.31-6-1.11-9.61-.74-1.79.21-4.64,2.55-5.91,3s-2.57.86-3.74,1.23a33.26,33.26,0,0,0-3.69,1.73c-3.68,1.78-5.86,1.78-10.39,3l-2.61.7c-5.63.76-5.09-3.1-3.33-4.08m-13.69,21.94c6.06-1.41,7.84.15,10.74,7,2.13,4.06,6.63,9.48,8.37,12-7,.8-18.06-8.71-21.16-13.9-2-2.57,1-4.62,2-5.16m-77-28.84c8-2.22,15-4.52,17.94-6.2,1.09-.08,2.1-.08,3.18-.15a20.93,20.93,0,0,0,2.53,6.39c.29.47.55.86.82,1.23-4.82.1-14.53-.49-24.47-1.27m16.61,13.94c4.06-2.46,8-5.11,11.7-7.82a47,47,0,0,0,5.63,5.56c-2.18.58-8.94,1.42-17.33,2.26Z"/><path class="cls-1" d="M190.54,525.71l.11,0c-.44.2-.39.16-.11,0Z"/><path class="cls-2" d="M126.69,144.28a81.94,81.94,0,0,1-11.78-10.65L85.59,101.17c1-1.21,29.6-36.2,29.6-36.22l1.71-1.78H102.45L70.29,103V63.17H55.74v84H70.29v-43l33.59,37.38c2.77,3.74,7.78,5.67,14.78,5.67h12l-2.85-2s-1.11-.87-1.11-.87Z"/><path class="cls-2" d="M195.57,60.68c-12.79-.06-23.83,4.23-32.74,12.81a42,42,0,0,0-13.45,31.25c0,12.81,4.47,23.57,13.32,32,8.59,8.25,19.24,12.42,31.66,12.42a44.58,44.58,0,0,0,32-12.87c8.83-8.54,13.32-19.36,13.32-32.17a41.71,41.71,0,0,0-12.33-30.23c-8.5-8.66-19.22-13.09-31.81-13.2M195,138.19c-8.75,0-16.16-3.66-21.91-10.91a36.8,36.8,0,0,1-8.13-23.67c0-9.28,2.73-17,8.15-23s12.69-8.93,21.64-8.93c8.79,0,16.08,3.61,21.7,10.78,5.16,6.61,7.76,14.76,7.76,24.16,0,9.14-2.63,16.75-7.88,22.63-5.4,5.93-12.59,8.95-21.33,8.95Z"/><path class="cls-2" d="M398.79,107l27,0V96l-27,0V74.25c5.89-.12,33,0,33.36,0l.92,0V63l-48.94,0v.94l0,83.34h53.92l.2-11.85-39.5,0V107Z"/><path class="cls-2" d="M516.27,62.92H502.76L468.41,147.2h13s11.15-29.75,11.58-30.92h30.33c.43,1.15,11.8,30.92,11.8,30.92h16.14L516.88,62.92h-.61m2.36,42.21H497.05c.82-2.17,9.44-24,10.9-27.67,1.42,3.69,9.86,25.52,10.68,27.67Z"/><path class="cls-2" d="M333.46,128.17,316,106.28a31.74,31.74,0,0,0,11.82-7.35A21.12,21.12,0,0,0,334.12,84a18.7,18.7,0,0,0-7-15.09c-4.83-4-11.5-6-19.86-6h-28V147.2h15v-1.31c-.39-2.82-.41-7.15-.41-17.17V73.45c13.73-.14,19.19,1.6,21.33,3.1,2.87,2.06,4.27,5,4.25,9,0,9.32-6.86,14.86-20.82,17l-1.58.2,29.5,37.8c3.51,4.41,8.63,6.63,15.24,6.63h12.05l-2.51-1.72a85,85,0,0,1-17.94-17.31Z"/><path class="cls-2" d="M280.51,202H293.4v-5.24H280.51V186.39c2.81-.06,15.75,0,15.91,0h.41V181h-23.3v.44l0,39.72h25.61l.18-5.66-18.85,0V202Z"/><path class="cls-2" d="M88.73,181.06H83.91l0,24.73c0,7.38-1.71,11.4-10.78,11.4H72.1c-6,0-9.09-3.86-9.09-11.4,0,0,0-24.73,0-24.73h-7v24.76a38.19,38.19,0,0,0,.34,6.3,11.46,11.46,0,0,0,2.82,5.77c2.63,2.85,6.38,4.33,11.15,4.33h4.49c4.77,0,8.54-1.48,11.15-4.33a11.33,11.33,0,0,0,2.79-5.79,33.91,33.91,0,0,0,.37-6.28l0-24.76Z"/><path class="cls-2" d="M149.24,181.06l0,.43s0,26.71,0,29c-1.5-1.89-23.24-29.48-23.24-29.48h-6v40.19h5.25s0-27.69,0-30.05l23.57,30,5.79,0V181.06h-5.29Z"/><polygon class="cls-2" points="184.16 181.06 184.16 221.25 191.06 221.25 191.08 181.06 190.65 181.06 184.16 181.06 184.16 181.06"/><polyline class="cls-2" points="435.56 221.25 442.48 221.25 442.48 212.43 442.48 189.92 442.48 181.49 442.48 181.06 442.05 181.06 435.5 181.06 435.5 181.06 435.5 189.92 435.5 212.43 435.56 221.25"/><path class="cls-2" d="M244.64,181.06l-11.52,31.49c-.76-2.14-11.29-31.49-11.29-31.49h-7.9l15,40.21h6.3l15.52-40.21h-6.1Z"/><path class="cls-2" d="M401.56,200.87l-5.4-2.65-4.62-2.28c-3.39-1.77-5.09-3.7-5.09-5.73a4.14,4.14,0,0,1,2.36-3.84,9.63,9.63,0,0,1,5.11-1c3.51.1,7.11,1.15,9,2.6l.7.56v-7.13l-.29-.08a30.43,30.43,0,0,0-9.05-1.35,20.48,20.48,0,0,0-10.43,2.46,9.11,9.11,0,0,0-5,8.38c0,3.71,1.85,6.81,5.54,9.2l2,1,8,3.92c3.39,1.79,5.1,3.84,5.1,6.18a4.86,4.86,0,0,1-2.78,4.27,9.93,9.93,0,0,1-5.31,1.48,24.15,24.15,0,0,1-12.08-3.22l-.78-.47,1,7,.27.08a31,31,0,0,0,10.86,1.85c4.9,0,9.11-1.3,12.13-3.7a11.12,11.12,0,0,0,4.31-9.13c0-3.25-1.87-6.06-5.54-8.42Z"/><path class="cls-2" d="M468.82,180.89v.45l0,4.83s10.39,0,11.23,0v35h6.9s0-34.1,0-35h11.45v-5.3Z"/><path class="cls-2" d="M543.72,180.93s-10.25,15.85-11,16.94c-.7-1.09-10.78-17-10.78-17h-8s14.31,22.52,14.47,22.75c0,.25,0,17.51,0,17.51h6.94s0-17.24,0-17.51,15.05-22.71,15.05-22.71Z"/><path class="cls-2" d="M351.42,212.1l-8.33-10.43a15.08,15.08,0,0,0,5.62-3.49,10.08,10.08,0,0,0,3-7.13,8.86,8.86,0,0,0-3.32-7.18C346.11,182,342.92,181,339,181H325.66v40.16h7.14v-.63a77.87,77.87,0,0,1-.18-8.18V186c6.5,0,9.11.78,10.14,1.5a4.87,4.87,0,0,1,2,4.31c0,4.44-3.26,7.07-9.91,8.07l-.74.1,14,18a8.77,8.77,0,0,0,7.23,3.16h5.77l-1.2-.84a39.94,39.94,0,0,1-8.56-8.23Z"/></svg>