<?xml version="1.0"?>
<svg xmlns="http://www.w3.org/2000/svg" xmlns:xlink="http://www.w3.org/1999/xlink" xmlns:svgjs="http://svgjs.com/svgjs" version="1.1" width="512" height="512" x="0" y="0" viewBox="0 0 512 512" style="enable-background:new 0 0 512 512" xml:space="preserve" class=""><g><g xmlns="http://www.w3.org/2000/svg"><g><path d="m497 .204h-482c-8.284 0-15 6.716-15 15v481.592c0 8.284 6.716 15 15 15h482c8.284 0 15-6.716 15-15v-481.592c0-8.284-6.716-15-15-15zm-15 30v71.307h-452v-71.307zm-452 451.592v-349.877h452v349.877z" fill="#910023" data-original="#000000" class=""/><path d="m423.113 255.474h-104.711c-8.284 0-15 6.716-15 15s6.716 15 15 15h104.711c8.284 0 15-6.716 15-15s-6.716-15-15-15z" fill="#910023" data-original="#000000" class=""/><path d="m423.113 183.117h-104.711c-8.284 0-15 6.716-15 15s6.716 15 15 15h104.711c8.284 0 15-6.716 15-15s-6.716-15-15-15z" fill="#910023" data-original="#000000" class=""/><path d="m423.113 327.832h-104.711c-8.284 0-15 6.716-15 15s6.716 15 15 15h104.711c8.284 0 15-6.716 15-15s-6.716-15-15-15z" fill="#910023" data-original="#000000" class=""/><path d="m423.113 400.189h-334.226c-8.284 0-15 6.716-15 15s6.716 15 15 15h334.227c8.284 0 15-6.716 15-15s-6.717-15-15.001-15z" fill="#910023" data-original="#000000" class=""/><path d="m88.887 363.739h167.113c8.284 0 15-6.716 15-15v-150.622c0-8.284-6.716-15-15-15h-167.113c-8.284 0-15 6.716-15 15v150.622c0 8.284 6.716 15 15 15zm15-150.622h137.113v120.622h-137.113z" fill="#910023" data-original="#000000" class=""/></g><path d="m445.232 81.26c8.141 0 15.94-7.085 15.564-15.403-.378-8.345-6.839-15.403-15.564-15.403-8.141 0-15.94 7.085-15.564 15.403.378 8.346 6.839 15.403 15.564 15.403z" fill="#910023" data-original="#000000" class=""/><path d="m388.768 81.26c8.141 0 15.94-7.085 15.564-15.403-.378-8.345-6.839-15.403-15.564-15.403-8.141 0-15.94 7.085-15.564 15.403.378 8.346 6.839 15.403 15.564 15.403z" fill="#910023" data-original="#000000" class=""/></g></g></svg>
