<?xml version="1.0"?>
<svg xmlns="http://www.w3.org/2000/svg" xmlns:xlink="http://www.w3.org/1999/xlink" xmlns:svgjs="http://svgjs.com/svgjs" version="1.1" width="512" height="512" x="0" y="0" viewBox="0 0 510 510" style="enable-background:new 0 0 512 512" xml:space="preserve" class=""><g><g xmlns="http://www.w3.org/2000/svg"><path d="m420 90v45h-196.509c-6.968-34.192-37.272-60-73.491-60h-60v-75h-90v510h90v-45h165v45h30v-45h75v45h30v-45h30v45h90v-420zm-196.509 270c-6.968-34.192-37.272-60-73.491-60h-60v-60h165v120zm-133.491-30h60c19.556 0 36.239 12.539 42.43 30h-102.43zm0-165h165v45h-165zm270 150h-75v-30h75zm0-60h-75v-30h75zm0-60h-75v-30h75zm-75 150h75v30h-75zm105-105h30v120h-30zm30-30h-30v-45h30zm-270-105c19.556 0 36.239 12.539 42.43 30h-102.43v-30zm-90 375h-30v-450h30zm30-45v-45h165v45zm195 0v-30h75v30zm105 0v-45h30v45zm90 45h-30c0-17.076 0-348.053 0-360h30z" fill="#910023" data-original="#000000" class=""/></g></g></svg>
