<?xml version="1.0"?>
<svg xmlns="http://www.w3.org/2000/svg" xmlns:xlink="http://www.w3.org/1999/xlink" xmlns:svgjs="http://svgjs.com/svgjs" version="1.1" width="512" height="512" x="0" y="0" viewBox="0 0 512 512" style="enable-background:new 0 0 512 512" xml:space="preserve" class=""><g><g xmlns="http://www.w3.org/2000/svg"><g><g><path d="m290.441 512h-68.883c-10.637 0-20.199-5.911-24.954-15.427s-3.741-20.711 2.646-29.218l11.625-15.484v-14.352c-18.116-4.472-35.294-11.595-51.305-21.272l-10.164 10.163-2.729 19.169c-1.499 10.532-8.699 19.165-18.79 22.531-10.09 3.367-21.032.785-28.554-6.737l-48.707-48.707c-7.522-7.521-10.104-18.462-6.737-28.553 3.366-10.091 12-17.291 22.531-18.79l19.169-2.729 10.163-10.163c-9.677-16.01-16.8-33.188-21.272-51.305h-14.351l-15.484 11.624c-8.507 6.387-19.704 7.4-29.218 2.646-9.516-4.755-15.427-14.317-15.427-24.955v-68.883c0-10.637 5.911-20.199 15.427-24.954 9.518-4.754 20.712-3.74 29.218 2.646l15.484 11.625h14.352c4.473-18.117 11.595-35.295 21.272-51.305l-10.163-10.163-19.169-2.729c-10.532-1.499-19.165-8.699-22.531-18.79s-.785-21.032 6.737-28.554l48.707-48.707c7.521-7.521 18.462-10.104 28.553-6.737 10.091 3.366 17.291 12 18.79 22.531l2.729 19.169 10.163 10.163c16.01-9.677 33.188-16.8 51.305-21.272v-14.352l-11.624-15.484c-6.387-8.507-7.4-19.703-2.646-29.218s14.317-15.427 24.955-15.427h68.883c10.637 0 20.199 5.911 24.954 15.427s3.741 20.711-2.646 29.218l-11.625 15.484v14.352c18.117 4.473 35.295 11.595 51.305 21.272l10.163-10.163 2.729-19.169c1.499-10.532 8.699-19.165 18.79-22.531s21.032-.785 28.554 6.737l48.707 48.707c7.522 7.521 10.104 18.462 6.737 28.553-3.366 10.091-12 17.291-22.531 18.79l-19.169 2.729-10.163 10.163c9.677 16.01 16.8 33.188 21.272 51.305h14.352l15.484-11.625c8.507-6.387 19.704-7.4 29.218-2.646 9.516 4.755 15.427 14.317 15.427 24.954v68.883c0 10.637-5.911 20.199-15.427 24.954s-20.711 3.741-29.218-2.646l-15.484-11.625h-14.352c-4.473 18.117-11.595 35.295-21.272 51.305l10.163 10.163 19.169 2.729c10.532 1.499 19.165 8.699 22.531 18.79s.785 21.032-6.737 28.554l-48.707 48.707c-7.521 7.521-18.463 10.104-28.553 6.737-10.091-3.366-17.291-12-18.79-22.531l-2.729-19.169-10.163-10.163c-16.011 9.677-33.189 16.8-51.305 21.272v14.352l11.625 15.484c6.387 8.507 7.4 19.703 2.646 29.218s-14.318 15.429-24.956 15.429zm-64.672-30h60.462l-9.519-12.679c-3.603-4.798-5.587-10.746-5.587-16.749v-27.206c0-7.278 5.224-13.505 12.391-14.771 22.53-3.98 43.501-12.674 62.332-25.841 5.962-4.169 14.058-3.459 19.202 1.686l19.253 19.252c4.244 4.244 7.046 9.853 7.892 15.795l2.234 15.695 42.753-42.753-15.695-2.234c-5.942-.846-11.551-3.648-15.794-7.892l-19.253-19.253c-5.145-5.145-5.855-13.24-1.686-19.203 13.167-18.829 21.861-39.8 25.841-62.332 1.266-7.167 7.494-12.391 14.771-12.391h27.206c6.002 0 11.95 1.984 16.749 5.587l12.679 9.52v-60.462l-12.679 9.519c-4.798 3.603-10.746 5.587-16.749 5.587h-27.206c-7.278 0-13.505-5.224-14.771-12.391-3.98-22.531-12.674-43.502-25.841-62.333-4.169-5.962-3.458-14.058 1.687-19.202l19.252-19.252c4.243-4.244 9.853-7.046 15.794-7.892l15.695-2.234-42.753-42.753-2.234 15.695c-.846 5.942-3.648 11.551-7.892 15.794l-19.253 19.253c-5.146 5.144-13.239 5.855-19.203 1.686-18.829-13.167-39.8-21.861-62.332-25.841-7.167-1.267-12.39-7.494-12.39-14.771v-27.207c0-6.002 1.985-11.951 5.588-16.75l9.518-12.677h-60.462l9.519 12.679c3.603 4.798 5.587 10.746 5.587 16.749v27.206c0 7.277-5.224 13.505-12.39 14.771-22.532 3.98-43.503 12.675-62.332 25.841-5.962 4.17-14.058 3.459-19.203-1.686l-19.253-19.252c-4.244-4.244-7.046-9.853-7.892-15.795l-2.234-15.695-42.753 42.753 15.695 2.234c5.942.846 11.551 3.648 15.794 7.892l19.252 19.252c5.145 5.145 5.856 13.24 1.687 19.202-13.167 18.83-21.861 39.802-25.841 62.333-1.266 7.167-7.494 12.391-14.771 12.391h-27.207c-6.002 0-11.951-1.985-16.75-5.588l-12.677-9.518v60.462l12.679-9.519c4.798-3.603 10.746-5.587 16.749-5.587h27.206c7.278 0 13.505 5.224 14.771 12.391 3.98 22.531 12.674 43.502 25.841 62.332 4.17 5.963 3.459 14.058-1.686 19.203l-19.252 19.253c-4.244 4.244-9.853 7.046-15.795 7.892l-15.695 2.234 42.753 42.753 2.234-15.695c.846-5.942 3.648-11.551 7.892-15.794l19.253-19.253c5.144-5.144 13.239-5.855 19.202-1.686 18.831 13.167 39.802 21.861 62.332 25.841 7.167 1.266 12.391 7.494 12.391 14.771v27.206c0 6.002-1.985 11.951-5.588 16.75z" fill="#ffffff" data-original="#000000" class=""/></g></g><g><g><path d="m205.75 265.938c-33.188 0-60.188-27-60.188-60.188s27-60.188 60.188-60.188 60.188 27 60.188 60.188-27.001 60.188-60.188 60.188zm0-90.376c-16.646 0-30.188 13.542-30.188 30.188s13.542 30.188 30.188 30.188 30.187-13.542 30.187-30.188-13.541-30.188-30.187-30.188z" fill="#ffffff" data-original="#000000" class=""/></g></g><g><g><path d="m316.25 361.375c-24.882 0-45.125-20.243-45.125-45.125s20.243-45.125 45.125-45.125 45.125 20.243 45.125 45.125-20.243 45.125-45.125 45.125zm0-60.25c-8.34 0-15.125 6.785-15.125 15.125s6.785 15.125 15.125 15.125 15.125-6.785 15.125-15.125-6.785-15.125-15.125-15.125z" fill="#ffffff" data-original="#000000" class=""/></g></g><g><g><g><path d="m199 353c7.846 0 15.363-6.899 15-15-.364-8.127-6.591-15-15-15-7.846 0-15.363 6.899-15 15 .364 8.127 6.591 15 15 15z" fill="#ffffff" data-original="#000000" class=""/></g></g></g><g><g><g><path d="m351 252c7.846 0 15.363-6.899 15-15-.364-8.127-6.591-15-15-15-7.846 0-15.363 6.899-15 15 .364 8.127 6.591 15 15 15z" fill="#ffffff" data-original="#000000" class=""/></g></g></g><g><g><g><path d="m303 181c7.846 0 15.363-6.899 15-15-.364-8.127-6.591-15-15-15-7.846 0-15.363 6.899-15 15 .364 8.127 6.591 15 15 15z" fill="#ffffff" data-original="#000000" class=""/></g></g></g></g></g></svg>
