<?xml version="1.0"?>
<svg xmlns="http://www.w3.org/2000/svg" xmlns:xlink="http://www.w3.org/1999/xlink" xmlns:svgjs="http://svgjs.com/svgjs" version="1.1" width="512" height="512" x="0" y="0" viewBox="0 0 512 512" style="enable-background:new 0 0 512 512" xml:space="preserve" class=""><g><g xmlns="http://www.w3.org/2000/svg"><path d="m497 302h-46.003c.106-1.529.022 1.207.053-24.95 0-19.299-15.701-35-35-35h-25.05c-.007-34.213.026-134.786-.047-135.975.306-4.266-1.215-8.55-4.347-11.681-.128-.128-90.164-90.162-90.012-90.011-2.792-2.786-6.653-4.383-10.594-4.383h-271c-8.284 0-15 6.716-15 15v482c0 8.284 6.716 15 15 15h452c24.813 0 45-20.187 45-45v-150c0-8.284-6.716-15-15-15zm-15 76.704-90.382 11.307c-.931-7.39-7.226-13.11-14.868-13.11-7.618 0-13.894 5.683-14.857 13.038l-89.943-11.242v-46.697h210.05zm-60.95-101.654c.031 26.105-.054 23.41.053 24.95h-90.106c.108-1.55.022 1.16.053-25.405 0-2.506 2.039-4.545 4.544-4.545h80.456c2.757 0 5 2.243 5 5zm-120.05-225.837 38.787 38.787h-38.787zm-271-21.213h241v75c0 8.284 6.716 15 15 15h75v122.05h-25.406c-19.048 0-34.544 15.497-34.544 34.545.031 26.565-.055 23.856.053 25.405h-44.153c-8.284 0-15 6.716-15 15 .891 156.16-2.002 152.079 2.58 165h-214.53zm437 452h-180.05c-8.271 0-15-6.729-15-15v-58.071l89.8 11.225v1.796c0 8.284 6.716 15 15 15s15-6.716 15-15v-1.722l90.25-11.291v58.063c0 8.271-6.729 15-15 15z" fill="#910023" data-original="#000000" class=""/><path d="m195.5 181.05c24.813 0 45-20.187 45-45s-20.187-45-45-45-45 20.187-45 45 20.187 45 45 45zm0-60c8.271 0 15 6.729 15 15s-6.729 15-15 15-15-6.729-15-15 6.729-15 15-15z" fill="#910023" data-original="#000000" class=""/><path d="m135.5 271.525h120c8.284 0 15-6.716 15-15 0-41.355-33.645-75-75-75s-75 33.645-75 75c0 8.285 6.716 15 15 15zm102.43-30h-84.86c14.142-39.884 70.706-39.919 84.86 0z" fill="#910023" data-original="#000000" class=""/><path d="m196.05 302h-75.075c-8.284 0-15 6.716-15 15s6.716 15 15 15h75.075c8.284 0 15-6.716 15-15s-6.716-15-15-15z" fill="#910023" data-original="#000000" class=""/><path d="m196.05 361h-75.075c-8.284 0-15 6.716-15 15s6.716 15 15 15h75.075c8.284 0 15-6.716 15-15s-6.716-15-15-15z" fill="#910023" data-original="#000000" class=""/><path d="m196.05 420.95h-75.075c-8.284 0-15 6.716-15 15s6.716 15 15 15h75.075c8.284 0 15-6.716 15-15s-6.716-15-15-15z" fill="#910023" data-original="#000000" class=""/><circle cx="75.345" cy="316" r="14.95" fill="#910023" data-original="#000000" class=""/><circle cx="75.345" cy="376" r="14.95" fill="#910023" data-original="#000000" class=""/><circle cx="75.345" cy="435.95" r="14.95" fill="#910023" data-original="#000000" class=""/></g></g></svg>
