<?xml version="1.0"?>
<svg xmlns="http://www.w3.org/2000/svg" xmlns:xlink="http://www.w3.org/1999/xlink" xmlns:svgjs="http://svgjs.com/svgjs" version="1.1" width="512" height="512" x="0" y="0" viewBox="0 0 512 512" style="enable-background:new 0 0 512 512" xml:space="preserve" class=""><g><g xmlns="http://www.w3.org/2000/svg"><path d="m316 271c-8.284 0-15 6.716-15 15v120c0 24.813 20.187 45 45 45h30c24.813 0 45-20.187 45-45v-120c0-8.284-6.716-15-15-15zm75 135c0 8.271-6.729 15-15 15h-30c-8.271 0-15-6.729-15-15v-47.58c4.695 1.665 9.742 2.58 15 2.58h30c5.258 0 10.305-.915 15-2.58zm0-90c0 8.271-6.729 15-15 15h-30c-8.271 0-15-6.729-15-15v-15h60z" fill="#910023" data-original="#000000" class=""/><path d="m466 181c-24.393 0-45-21.065-45-46v-120c0-8.284-6.716-15-15-15h-60c-3.979 0-7.794 1.581-10.606 4.394l-79.394 79.393-79.394-79.393c-2.812-2.813-6.627-4.394-10.606-4.394h-60c-8.284 0-15 6.716-15 15v120c0 24.935-20.607 46-45 46-8.284 0-15 6.716-15 15v301c0 8.284 6.716 15 15 15h420c8.284 0 15-6.716 15-15v-301c0-8.284-6.716-15-15-15zm-225 301h-180v-272.531c14.336-2.971 27.534-10.194 38.153-21.057 14.088-14.413 21.847-33.382 21.847-53.412v-105h38.787l81.213 81.213v36.914c-6.852-3.383-14.411-5.127-22.5-5.127-29.439 0-52.5 23.094-52.5 52.576 0 31.177 25.721 51.216 61.319 78.951 4.428 3.45 8.972 6.992 13.681 10.713zm15-223.136c-3.5-2.75-6.902-5.4-10.243-8.003-32.695-25.473-49.757-39.501-49.757-55.285 0-11.219 7.729-22.576 22.5-22.576 16.315 0 22.402 17.063 23.146 19.359.002.008.006.016.008.024.024.078.051.154.076.231 1.917 6.301 7.658 10.63 14.27 10.63s12.353-4.33 14.27-10.63c.025-.077.052-.153.076-.231.002-.008.005-.016.008-.024.744-2.296 6.831-19.359 23.146-19.359 14.771 0 22.5 11.357 22.5 22.576 0 15.785-17.062 29.813-49.757 55.286-3.341 2.602-6.743 5.253-10.243 8.002zm195 223.136h-180v-196.76c4.709-3.721 9.252-7.262 13.681-10.713 35.598-27.735 61.319-47.775 61.319-78.951 0-29.482-23.061-52.576-52.5-52.576-8.089 0-15.648 1.744-22.5 5.127v-36.914l81.213-81.213h38.787v105c0 20.03 7.759 38.999 21.847 53.412 10.619 10.863 23.817 18.086 38.153 21.057z" fill="#910023" data-original="#000000" class=""/><path d="m196 271h-90c-8.284 0-15 6.716-15 15v120c0 24.813 20.187 45 45 45h30c24.813 0 45-20.187 45-45v-120c0-8.284-6.716-15-15-15zm-15 135c0 8.271-6.729 15-15 15h-30c-8.271 0-15-6.729-15-15v-47.58c4.695 1.665 9.742 2.58 15 2.58h30c5.258 0 10.305-.915 15-2.58zm0-90c0 8.271-6.729 15-15 15h-30c-8.271 0-15-6.729-15-15v-15h60z" fill="#910023" data-original="#000000" class=""/></g></g></svg>
