<?xml version="1.0" encoding="utf-8"?>
<!-- Generator: Adobe Illustrator 25.4.1, SVG Export Plug-In . SVG Version: 6.00 Build 0)  -->
<svg version="1.1" id="레이어_1" xmlns:svgjs="http://svgjs.com/svgjs"
	 xmlns="http://www.w3.org/2000/svg" xmlns:xlink="http://www.w3.org/1999/xlink" x="0px" y="0px" viewBox="0 0 512 512"
	 style="enable-background:new 0 0 512 512;" xml:space="preserve">
<style type="text/css">
	.st0{fill:#FFFFFF;}
</style>
<g>
	<path class="st0" d="M238.9,290.1c-2.5,0-4.9-0.5-7.2-1.6L9.9,186.2c-8.6-3.9-12.3-14.1-8.3-22.6c1.7-3.7,4.7-6.6,8.3-8.3
		L231.8,52.8c4.5-2.1,9.8-2.1,14.3,0L468,155.2c8.6,3.9,12.3,14.1,8.3,22.6c-1.7,3.7-4.7,6.6-8.3,8.3L246.1,288.6
		C243.8,289.6,241.4,290.1,238.9,290.1L238.9,290.1z M57.8,170.7l181.1,83.6l181.1-83.6L238.9,87L57.8,170.7z"/>
	<path class="st0" d="M460.8,392.5c-9.4,0-17.1-7.6-17.1-17.1V170.7c0-9.4,7.6-17.1,17.1-17.1c9.4,0,17.1,7.6,17.1,17.1v204.8
		C477.9,384.9,470.2,392.5,460.8,392.5z"/>
	<path class="st0" d="M238.9,409.6c-78.1,0-162.1-21.3-162.1-68.3v-128c0-9.4,7.6-17.1,17.1-17.1s17.1,7.6,17.1,17.1v128
		c0,9.9,44.9,34.1,128,34.1s128-24.2,128-34.1v-128c0-9.4,7.6-17.1,17.1-17.1s17.1,7.6,17.1,17.1v128
		C401.1,388.3,317,409.6,238.9,409.6z"/>
	<path class="st0" d="M460.8,460.8c-28.3,0-51.2-22.9-51.2-51.2s22.9-51.2,51.2-51.2c28.3,0,51.2,22.9,51.2,51.2
		C512,437.9,489.1,460.8,460.8,460.8z M460.8,392.5c-9.4,0-17.1,7.6-17.1,17.1s7.6,17.1,17.1,17.1c9.4,0,17.1-7.6,17.1-17.1
		S470.2,392.5,460.8,392.5z"/>
</g>
</svg>
