<?xml version="1.0" encoding="utf-8"?>
<!-- Generator: Adobe Illustrator 25.4.1, SVG Export Plug-In . SVG Version: 6.00 Build 0)  -->
<svg version="1.1" id="레이어_1" xmlns="http://www.w3.org/2000/svg" xmlns:xlink="http://www.w3.org/1999/xlink" x="0px"
	 y="0px" viewBox="0 0 32 32" style="enable-background:new 0 0 32 32;" xml:space="preserve">
<style type="text/css">
	.st0{fill:#FFFFFF;}
</style>
<g id="Layer_2">
	<path class="st0" d="M8,1C7.4,1,7,1.4,7,2v14c-1.1,0.1-2,1.1-2,2.2v0.6c0,0.7,0.4,1.4,1,1.9V30c0,0.6,0.4,1,1,1s1-0.4,1-1v-2h16v2
		c0,0.6,0.4,1,1,1s1-0.4,1-1v-9.4c0.6-0.4,1-1.1,1-1.9v-0.6c0-1.1-0.9-2.1-2-2.2V2c0-0.6-0.4-1-1-1s-1,0.4-1,1v1H9V2
		C9,1.4,8.6,1,8,1z M23,16H9v-5h14V16z M7,18.2C7,18.1,7.1,18,7.2,18h17.6c0.1,0,0.2,0.1,0.2,0.2v0.6c0,0.1-0.1,0.2-0.2,0.2H7.2
		C7.1,19,7,18.9,7,18.8V18.2z M8,26v-5h16v5H8z M23,5v4H9V5H23z"/>
</g>
</svg>
