<?xml version="1.0"?>
<svg xmlns="http://www.w3.org/2000/svg" xmlns:xlink="http://www.w3.org/1999/xlink" xmlns:svgjs="http://svgjs.com/svgjs" version="1.1" width="512" height="512" x="0" y="0" viewBox="0 0 512 512.00016" style="enable-background:new 0 0 512 512" xml:space="preserve"><g>
<g xmlns="http://www.w3.org/2000/svg" id="surface1">
<path d="M 60 120 L 60 467 C 60 475.285156 66.714844 482 75 482 L 255 482 L 255 497 C 255 502.53125 258.046875 507.613281 262.921875 510.226562 C 267.800781 512.835938 273.71875 512.550781 278.320312 509.480469 L 315 485.027344 L 351.679688 509.480469 C 356.289062 512.554688 362.207031 512.832031 367.078125 510.226562 C 371.957031 507.613281 375 502.53125 375 497 L 375 482 L 435 482 C 443.285156 482 450 475.285156 450 467 L 450 60 C 450 26.914062 423.085938 0 390 0 L 60 0 C 26.917969 0 0 26.914062 0 60 C 0 93.085938 26.917969 120 60 120 Z M 315 390 C 290.1875 390 270 369.8125 270 345 C 270 320.1875 290.1875 300 315 300 C 339.8125 300 360 320.1875 360 345 C 360 369.8125 339.8125 390 315 390 Z M 345 468.972656 L 323.320312 454.519531 C 318.28125 451.160156 311.71875 451.160156 306.679688 454.519531 L 285 468.972656 L 285 413.71875 C 294.195312 417.75 304.335938 420 315 420 C 325.664062 420 335.804688 417.746094 345 413.71875 Z M 390 30 C 406.542969 30 420 43.457031 420 60 L 420 452 L 375 452 L 375 389.949219 C 384.414062 377.414062 390 361.847656 390 345 C 390 303.644531 356.355469 270 315 270 C 273.644531 270 240 303.644531 240 345 C 240 361.847656 245.585938 377.414062 255 389.949219 L 255 452 L 90 452 L 90 120 L 394.140625 120 C 402.425781 120 409.140625 113.285156 409.140625 105 C 409.140625 96.714844 402.425781 90 394.140625 90 L 390 90 C 373.457031 90 360 76.542969 360 60 C 360 43.457031 373.457031 30 390 30 Z M 60 29.988281 L 338.050781 29.988281 C 332.933594 38.820312 330 49.078125 330 60 C 330 70.921875 332.933594 81.171875 338.050781 90 L 60 90 C 43.457031 90 30 76.542969 30 60 C 30 43.457031 43.457031 29.988281 60 29.988281 Z M 60 29.988281 " style=" stroke:none;fill-rule:nonzero;fill-opacity:1;" fill="#910023" data-original="#000000"/>
<path d="M 375 150 L 135 150 C 126.714844 150 120 156.714844 120 165 C 120 173.285156 126.714844 180 135 180 L 375 180 C 383.285156 180 390 173.285156 390 165 C 390 156.714844 383.285156 150 375 150 Z M 375 150 " style=" stroke:none;fill-rule:nonzero;fill-opacity:1;" fill="#910023" data-original="#000000"/>
<path d="M 375 210 L 135 210 C 126.714844 210 120 216.714844 120 225 C 120 233.285156 126.714844 240 135 240 L 375 240 C 383.285156 240 390 233.285156 390 225 C 390 216.714844 383.285156 210 375 210 Z M 375 210 " style=" stroke:none;fill-rule:nonzero;fill-opacity:1;" fill="#910023" data-original="#000000"/>
<path d="M 195 270 L 135 270 C 126.714844 270 120 276.714844 120 285 C 120 293.285156 126.714844 300 135 300 L 195 300 C 203.285156 300 210 293.285156 210 285 C 210 276.714844 203.285156 270 195 270 Z M 195 270 " style=" stroke:none;fill-rule:nonzero;fill-opacity:1;" fill="#910023" data-original="#000000"/>
<path d="M 195 330 L 135 330 C 126.714844 330 120 336.714844 120 345 C 120 353.285156 126.714844 360 135 360 L 195 360 C 203.285156 360 210 353.285156 210 345 C 210 336.714844 203.285156 330 195 330 Z M 195 330 " style=" stroke:none;fill-rule:nonzero;fill-opacity:1;" fill="#910023" data-original="#000000"/>
</g>
</g></svg>
