<?xml version="1.0"?>
<svg xmlns="http://www.w3.org/2000/svg" xmlns:xlink="http://www.w3.org/1999/xlink" xmlns:svgjs="http://svgjs.com/svgjs" version="1.1" width="512" height="512" x="0" y="0" viewBox="0 0 509.815 509.815" style="enable-background:new 0 0 512 512" xml:space="preserve" class=""><g><path xmlns="http://www.w3.org/2000/svg" d="m165.029 399.026c8.003 2.128 16.222-2.636 18.351-10.643l15.896-59.795 52.299-5.041 19.987 65.723c2.411 7.929 10.792 12.397 18.715 9.987 7.926-2.41 12.397-10.79 9.987-18.715l-18.225-59.931 3.72-.359c8.246-.795 14.287-8.124 13.492-16.37-.794-8.246-8.125-14.285-16.37-13.492l-9.746.939-35.366-116.298c-4.365-14.354-24.972-14.069-28.848.51l-33.28 125.185-26.915 2.594c-8.246.795-14.287 8.124-13.492 16.37.796 8.26 8.143 14.289 16.37 13.492l15.815-1.524-13.031 49.017c-2.13 8.006 2.635 16.222 10.641 18.351zm59.356-164.889 18.285 60.129-35.172 3.39z" fill="#910023" data-original="#000000" class=""/><path xmlns="http://www.w3.org/2000/svg" d="m333.839 211.136c8.284 0 15-6.716 15-15v-32.22l16.619.962c8.269.478 15.363-5.837 15.842-14.108s-5.838-15.363-14.108-15.842l-18.353-1.062v-18.46c0-8.284-6.716-15-15-15s-15 6.716-15 15v16.724l-16.619-.962c-8.268-.48-15.363 5.838-15.842 14.108s5.838 15.363 14.108 15.842l18.353 1.062v33.957c0 8.284 6.716 14.999 15 14.999z" fill="#910023" data-original="#000000" class=""/><path xmlns="http://www.w3.org/2000/svg" d="m418.667 70.653c-5.675-6.033-15.168-6.323-21.203-.648-6.034 5.677-6.324 15.169-.648 21.204 68.585 72.908 81.882 206.102 29.641 296.912-45.128 78.446-128.723 108.01-235.38 83.244-109.134-25.34-151.646-139.593-136.239-234.229 17.461-107.246 114.071-225.249 328.865-204.86 8.254.776 15.568-5.269 16.35-13.516.783-8.247-5.268-15.567-13.515-16.35-212.59-20.181-338.368 88.991-361.31 229.905-19.375 119.012 40.444 240.73 159.063 268.272 111.655 25.926 212.998-1.604 268.169-97.507 58.099-100.991 44.269-249.446-33.793-332.427z" fill="#910023" data-original="#000000" class=""/></g></svg>
