<?xml version="1.0" encoding="utf-8"?>
<!-- Generator: Adobe Illustrator 25.4.1, SVG Export Plug-In . SVG Version: 6.00 Build 0)  -->
<svg version="1.1" id="레이어_1" xmlns="http://www.w3.org/2000/svg" xmlns:xlink="http://www.w3.org/1999/xlink" x="0px"
	 y="0px" viewBox="0 0 24 24" style="enable-background:new 0 0 24 24;" xml:space="preserve">
<style type="text/css">
	.st0{fill:#FFFFFF;}
</style>
<path class="st0" d="M8,16c0.6,0,1-0.4,1-1s-0.4-1-1-1c-0.6,0-1,0.4-1,1S7.4,16,8,16z"/>
<path class="st0" d="M17,15c0,0.6-0.4,1-1,1c-0.6,0-1-0.4-1-1s0.4-1,1-1C16.6,14,17,14.4,17,15z"/>
<path class="st0" d="M7.7,2C5.7,2,4,3.7,4,5.8v3.8H2.7C2.3,9.5,2,9.8,2,10.2C2,10.7,2.3,11,2.7,11H4v8.8c0,1,0.8,1.8,1.8,1.8h1.5
	c1,0,1.8-0.8,1.8-1.8v-1.2h6v1.2c0,1,0.8,1.8,1.8,1.8h1.5c1,0,1.8-0.8,1.8-1.8V11h1.2c0.4,0,0.8-0.3,0.8-0.8c0-0.4-0.3-0.8-0.8-0.8
	H20V5.8C20,3.7,18.3,2,16.2,2H7.7z M18.5,18.5v1.2c0,0.1-0.1,0.2-0.2,0.2h-1.5c-0.1,0-0.2-0.1-0.2-0.2v-1.2H18.5z M18.5,17h-13v-4
	h13V17z M5.5,19.8v-1.2h2v1.2c0,0.1-0.1,0.2-0.2,0.2H5.7C5.6,20,5.5,19.9,5.5,19.8z M5.5,5.8c0-1.2,1-2.2,2.2-2.2h8.5
	c1.2,0,2.2,1,2.2,2.2v5.8h-13V5.8z"/>
<rect x="4.8" y="5" class="st0" width="14.3" height="1.5"/>
</svg>
