<?xml version="1.0"?>
<svg xmlns="http://www.w3.org/2000/svg" xmlns:xlink="http://www.w3.org/1999/xlink" xmlns:svgjs="http://svgjs.com/svgjs" version="1.1" width="512" height="512" x="0" y="0" viewBox="0 0 32 32" style="enable-background:new 0 0 512 512" xml:space="preserve"><g><g xmlns="http://www.w3.org/2000/svg" id="Layer_3" data-name="Layer 3"><path d="M27.311,4H4.689A3.693,3.693,0,0,0,1,7.689V24.311A3.693,3.693,0,0,0,4.689,28H27.311A3.693,3.693,0,0,0,31,24.311V7.689A3.693,3.693,0,0,0,27.311,4ZM29,24.311A1.691,1.691,0,0,1,27.311,26H4.689A1.691,1.691,0,0,1,3,24.311V7.689A1.691,1.691,0,0,1,4.689,6H27.311A1.691,1.691,0,0,1,29,7.689Z" fill="#ffffff" data-original="#000000"/><path d="M11,16a4,4,0,1,0-4-4A4,4,0,0,0,11,16Zm0-6a2,2,0,1,1-2,2A2,2,0,0,1,11,10Z" fill="#ffffff" data-original="#000000"/><path d="M11,17a6.006,6.006,0,0,0-6,6,1,1,0,0,0,2,0,4,4,0,0,1,8,0,1,1,0,0,0,2,0A6.006,6.006,0,0,0,11,17Z" fill="#ffffff" data-original="#000000"/><path d="M26,15H20a1,1,0,0,0,0,2h6a1,1,0,0,0,0-2Z" fill="#ffffff" data-original="#000000"/><path d="M26,20H20a1,1,0,0,0,0,2h6a1,1,0,0,0,0-2Z" fill="#ffffff" data-original="#000000"/><path d="M26,10H20a1,1,0,0,0,0,2h6a1,1,0,0,0,0-2Z" fill="#ffffff" data-original="#000000"/></g></g></svg>
