<svg id="Capa_1" data-name="Capa 1" xmlns="http://www.w3.org/2000/svg" viewBox="0 0 188.27 188.27"><defs><style>.cls-1{fill:#910029;}</style></defs><path class="cls-1" d="M148.59,151.44c-14,0-22.91-7.12-28.89-15v13.22H100.19V36.83H119.7V78.68c6.29-8.88,15.17-16,28.89-16,20.17,0,39.68,16,39.68,44.37s-19.35,44.37-39.68,44.37m-4.52-71.8c-13.23,0-24.85,10.81-24.85,27.43s11.62,27.43,24.85,27.43c13.38,0,24.35-10.49,24.35-27.43,0-16.77-11.13-27.43-24.35-27.43"/><path class="cls-1" d="M87.75,65.7c0,13.88-7.75,21-16.14,25.33C84.85,95.55,94,103.12,94,118.61c0,20.33-16.62,31.13-41.78,31.13H0V36.83H50.65c22.74,0,37.1,11.13,37.1,28.87M67.91,68.92c0-9.18-7.1-14.51-19.84-14.51H19.51v30h27.1c12.74,0,21.3-5,21.3-15.5m6.3,47.59c0-9.68-7.6-15.32-23.25-15.32H19.51v31H52.42c13.56,0,21.79-5.32,21.79-15.65"/></svg>