<?xml version="1.0"?>
<svg xmlns="http://www.w3.org/2000/svg" xmlns:xlink="http://www.w3.org/1999/xlink" xmlns:svgjs="http://svgjs.com/svgjs" version="1.1" width="512" height="512" x="0" y="0" viewBox="0 0 512 512" style="enable-background:new 0 0 512 512" xml:space="preserve" class=""><g><path xmlns="http://www.w3.org/2000/svg" d="m155.6875 311h-32.9375v-50.984375c0-16.585937-6.621094-31.644531-17.347656-42.699219 18.320312-12.175781 30.425781-32.992187 30.425781-56.59375 0-37.445312-30.464844-67.914062-67.914063-67.914062-37.449218 0-67.914062 30.464844-67.914062 67.914062 0 20.402344 9.054688 38.714844 23.339844 51.175782-14.203125 11.25-23.339844 28.628906-23.339844 48.117187v151.859375h100.125v100.125h100.875v-155.6875c0-24.984375-20.328125-45.3125-45.3125-45.3125zm-87.773438-188.191406c20.90625 0 37.914063 17.007812 37.914063 37.914062s-17.007813 37.917969-37.914063 37.917969-37.914062-17.011719-37.914062-37.917969 17.007812-37.914062 37.914062-37.914062zm103.085938 359.191406h-40.875v-100.125h-100.125v-121.859375c0-17.300781 14.074219-31.375 31.375-31.375s31.375 14.074219 31.375 31.375v80.984375h62.9375c8.441406 0 15.3125 6.871094 15.3125 15.3125zm0 0" fill="#910023" data-original="#000000" class=""/><path xmlns="http://www.w3.org/2000/svg" d="m488.660156 211.898438c14.285156-12.460938 23.339844-30.773438 23.339844-51.175782 0-37.449218-30.464844-67.914062-67.914062-67.914062-37.449219 0-67.914063 30.464844-67.914063 67.914062 0 23.597656 12.105469 44.417969 30.425781 56.59375-10.726562 11.054688-17.347656 26.113282-17.347656 42.695313v50.988281h-32.9375c-24.984375 0-45.3125 20.328125-45.3125 45.3125v155.6875h100.875v-100.125h100.125v-151.859375c0-19.488281-9.136719-36.867187-23.339844-48.117187zm-44.574218-89.089844c20.90625 0 37.914062 17.007812 37.914062 37.914062s-17.007812 37.917969-37.914062 37.917969-37.914063-17.011719-37.914063-37.917969 17.007813-37.914062 37.914063-37.914062zm37.914062 259.066406h-100.125v100.125h-40.875v-125.6875c0-8.441406 6.871094-15.3125 15.3125-15.3125h62.9375v-80.984375c0-17.300781 14.074219-31.375 31.375-31.375s31.375 14.074219 31.375 31.375zm0 0" fill="#910023" data-original="#000000" class=""/><path xmlns="http://www.w3.org/2000/svg" d="m352 121.664062v-79.332031c0-23.34375-18.988281-42.332031-42.332031-42.332031h-107.335938c-23.34375 0-42.332031 18.988281-42.332031 42.332031v79.332031c0 23.34375 18.988281 42.335938 42.332031 42.335938h18.171875l35.496094 61.480469 35.496094-61.480469h18.171875c23.34375 0 42.332031-18.992188 42.332031-42.335938zm-30 0c0 6.804688-5.53125 12.335938-12.332031 12.335938h-35.492188l-18.175781 31.480469-18.175781-31.480469h-35.492188c-6.800781 0-12.332031-5.53125-12.332031-12.335938v-79.332031c0-6.800781 5.53125-12.332031 12.332031-12.332031h107.335938c6.800781 0 12.332031 5.53125 12.332031 12.332031zm0 0" fill="#910023" data-original="#000000" class=""/></g></svg>
