<?xml version="1.0"?>
<svg xmlns="http://www.w3.org/2000/svg" xmlns:xlink="http://www.w3.org/1999/xlink" xmlns:svgjs="http://svgjs.com/svgjs" version="1.1" width="512" height="512" x="0" y="0" viewBox="0 0 510 510" style="enable-background:new 0 0 512 512" xml:space="preserve" class=""><g><g xmlns="http://www.w3.org/2000/svg"><path d="m299.678 174.994c34.417-37.84 6.98-100.178-44.678-99.994-51.656-.185-79.097 62.164-44.677 99.994-35.617 16.817-60.323 53.077-60.323 95.006v45h210v-45c0-41.929-24.706-78.189-60.322-95.006zm-74.678-39.994c0-16.542 13.458-30 30-30 39.799 1.648 39.788 58.358 0 60-16.542 0-30-13.458-30-30zm105 150h-150v-15c4.131-99.522 145.906-99.445 150 0z" fill="#910023" data-original="#000000" class=""/><path d="m420 30v-30h-360v60h-30v30h30v30h-30v30h30v30h-30v30h30v30h-30v30h30v30h-30v30h30v30h-30v30h30v30h-30v30h30v60h360v-30h60v-60-30-30-30-30-30-30-30-30-30-30-30-60zm-330 450v-30h30v-30h-30v-30h30v-30h-30v-30h30v-30h-30v-30h30v-30h-30v-30h30v-30h-30v-30h30v-30h-30v-30h30v-30h-30v-30h300v60 30 30 30 30 30 30 30 30 30 30 30 60zm360-30h-30v-30h30zm0-60h-30v-30h30zm0-60h-30v-30h30zm0-60h-30v-30h30zm0-60h-30v-30h30zm0-60h-30v-30h30zm-30-60v-30h30v30z" fill="#910023" data-original="#000000" class=""/><path d="m150 345h210v30h-210z" fill="#910023" data-original="#000000" class=""/><path d="m150 405h210v30h-210z" fill="#910023" data-original="#000000" class=""/></g></g></svg>
