<?xml version="1.0" encoding="utf-8"?>
<!-- Generator: Adobe Illustrator 25.4.1, SVG Export Plug-In . SVG Version: 6.00 Build 0)  -->
<svg version="1.1" id="레이어_1" xmlns:svgjs="http://svgjs.com/svgjs"
	 xmlns="http://www.w3.org/2000/svg" xmlns:xlink="http://www.w3.org/1999/xlink" x="0px" y="0px" viewBox="0 0 512 512"
	 style="enable-background:new 0 0 512 512;" xml:space="preserve">
<style type="text/css">
	.st0{fill:#FFFFFF;stroke:#FFFFFF;stroke-width:4;stroke-miterlimit:10;}
</style>
<g transform="matrix(1,-2.4492935982947064e-16,2.4492935982947064e-16,1,-3.552713678800501e-15,3.552713678800501e-15)">
	<path class="st0" d="M282.2,27.1L91.5,220.1l-62.7,27.3C5.7,257.5-4.9,284.5,5.2,307.7L27.6,359c9.6,22,33.5,29.8,58.3,19l15.9-6.9
		l68.7,111.3c4,6.5,12.1,9,19.1,6l56-24.4c4-1.7,7-5.1,8.4-9.2c1.4-4.1,0.9-8.6-1.3-12.4l-53.7-93.1l220.7-6.7
		c2-0.1,3.9-0.5,5.6-1.3c2.7-1.2,5.1-3.2,6.8-5.8c2.7-4.3,3.1-9.6,1.1-14.3L307,31.7c-2-4.6-6.2-8-11.2-8.9
		C290.8,21.9,285.7,23.5,282.2,27.1z M55.6,346.8l-22.4-51.3c-3.4-7.7,0.2-16.7,7.9-20.1L92.4,253l32.5,74.7L73.6,350
		C67.2,352.8,58.9,354.5,55.6,346.8z M217.6,442.8l-28.2,12.3L130,358.8l18.5-8.1l15.8-0.5L217.6,442.8z M396.1,312.7L173,319.4
		c-1,0-1.9-0.1-2.9,0.1l-15.2,0.5l-36.5-83.7L288,64.6L396.1,312.7z"/>
	<path class="st0" d="M393.9,118l30.4-57.7c3.9-7.5,1.1-16.7-6.4-20.6c-7.5-3.9-16.7-1-20.6,6.4l-30.4,57.7
		c-3.9,7.5-1.1,16.7,6.4,20.6c4.3,2.2,9.1,2.3,13.2,0.5C389.6,123.5,392.2,121.2,393.9,118L393.9,118z"/>
	<path class="st0" d="M437.2,217.4c-8.1-2.2-16.5,2.6-18.7,10.8c-2.2,8.1,2.6,16.5,10.8,18.7l62.9,17c3.5,0.9,7,0.6,10.1-0.8
		c4.1-1.8,7.4-5.4,8.7-10c2.2-8.1-2.6-16.5-10.8-18.7L437.2,217.4z"/>
	<path class="st0" d="M447.4,137.2l-46.7,20.3c-7.7,3.4-11.3,12.4-7.9,20.1s12.4,11.3,20.1,7.9l46.7-20.3
		c7.7-3.4,11.3-12.4,7.9-20.1S455.1,133.8,447.4,137.2z"/>
</g>
</svg>
