<?xml version="1.0"?>
<svg xmlns="http://www.w3.org/2000/svg" xmlns:xlink="http://www.w3.org/1999/xlink" xmlns:svgjs="http://svgjs.com/svgjs" version="1.1" width="512" height="512" x="0" y="0" viewBox="0 0 512 512" style="enable-background:new 0 0 512 512" xml:space="preserve" class=""><g>
<g xmlns="http://www.w3.org/2000/svg">
	<g>
		<path d="M256.309,33.391c-129.224,0-234.358,105.133-234.358,234.358s105.133,234.357,234.358,234.357    s234.357-105.133,234.357-234.357C490.667,138.524,385.534,33.391,256.309,33.391z M256.309,465.005    c-108.769,0-197.256-88.487-197.256-197.256S147.54,70.493,256.309,70.493s197.256,88.493,197.256,197.256    S365.078,465.005,256.309,465.005z" fill="#910023" data-original="#000000" class=""/>
	</g>
</g>
<g xmlns="http://www.w3.org/2000/svg">
	<g>
		<path d="M346.589,256h-74.203V146.551c0-10.246-8.305-18.551-18.551-18.551c-10.246,0-18.551,8.305-18.551,18.551v128    c0,10.246,8.305,18.551,18.551,18.551h92.754c10.252,0,18.551-8.305,18.551-18.551S356.836,256,346.589,256z" fill="#910023" data-original="#000000" class=""/>
	</g>
</g>
<g xmlns="http://www.w3.org/2000/svg">
	<g>
		<path d="M125.273,419.154c-7.903-6.518-19.59-5.392-26.113,2.504l-49.469,59.981c-6.518,7.909-5.392,19.596,2.51,26.119    c3.457,2.851,7.637,4.242,11.792,4.242c5.343,0,10.648-2.3,14.321-6.746l49.469-59.981    C134.301,437.364,133.176,425.677,125.273,419.154z" fill="#910023" data-original="#000000" class=""/>
	</g>
</g>
<g xmlns="http://www.w3.org/2000/svg">
	<g>
		<path d="M462.933,481.639l-49.469-59.981c-6.511-7.896-18.211-9.022-26.119-2.504c-7.896,6.524-9.022,18.217-2.504,26.119    l49.469,59.981c3.661,4.446,8.972,6.746,14.321,6.746c4.155,0,8.335-1.391,11.798-4.242    C468.325,501.234,469.451,489.541,462.933,481.639z" fill="#910023" data-original="#000000" class=""/>
	</g>
</g>
<g xmlns="http://www.w3.org/2000/svg">
	<g>
		<path d="M99.246,0C45.035,0,0.928,44.107,0.928,98.319c0,36.205,20.097,69.485,52.443,86.836l17.543-32.693    c-20.282-10.877-32.884-31.629-32.884-54.143c0-33.756,27.461-61.217,61.217-61.217c24.196,0,46.16,14.556,55.955,37.083    l34.022-14.797C173.542,23.312,138.221,0,99.246,0z" fill="#910023" data-original="#000000" class=""/>
	</g>
</g>
<g xmlns="http://www.w3.org/2000/svg">
	<g>
		<path d="M412.754,0c-40.162,0-75.792,23.968-90.787,61.069l34.399,13.901c9.3-23.003,31.431-37.868,56.382-37.868    c33.756,0,61.217,27.461,61.217,61.217c0,22.62-11.891,42.667-31.821,53.624l17.889,32.507    c31.481-17.32,51.039-50.322,51.039-86.131C511.072,44.107,466.971,0,412.754,0z" fill="#910023" data-original="#000000" class=""/>
	</g>
</g>
<g xmlns="http://www.w3.org/2000/svg">
</g>
<g xmlns="http://www.w3.org/2000/svg">
</g>
<g xmlns="http://www.w3.org/2000/svg">
</g>
<g xmlns="http://www.w3.org/2000/svg">
</g>
<g xmlns="http://www.w3.org/2000/svg">
</g>
<g xmlns="http://www.w3.org/2000/svg">
</g>
<g xmlns="http://www.w3.org/2000/svg">
</g>
<g xmlns="http://www.w3.org/2000/svg">
</g>
<g xmlns="http://www.w3.org/2000/svg">
</g>
<g xmlns="http://www.w3.org/2000/svg">
</g>
<g xmlns="http://www.w3.org/2000/svg">
</g>
<g xmlns="http://www.w3.org/2000/svg">
</g>
<g xmlns="http://www.w3.org/2000/svg">
</g>
<g xmlns="http://www.w3.org/2000/svg">
</g>
<g xmlns="http://www.w3.org/2000/svg">
</g>
</g></svg>
