<?xml version="1.0" encoding="utf-8"?>
<!-- Generator: Adobe Illustrator 25.4.1, SVG Export Plug-In . SVG Version: 6.00 Build 0)  -->
<svg version="1.1" id="Layer_1" xmlns="http://www.w3.org/2000/svg" xmlns:xlink="http://www.w3.org/1999/xlink" x="0px" y="0px"
	 viewBox="0 0 595.3 841.9" style="enable-background:new 0 0 595.3 841.9;" xml:space="preserve">
<style type="text/css">
	.st0{fill:#8A1C25;}
</style>
<path class="st0" d="M252.3,729.4h7.6c1,0,0.6-1,0.6-1c-2.1-9-2.4-18.3-0.9-27.5c0,0,0.3-1-0.8-1h-7.5c-1,0-0.6,0.8-0.6,0.8
	c2.6,10.5,1.6,23.7,0.9,27.6c0,0-0.5,1,0.7,1L252.3,729.4z"/>
<path class="st0" d="M280.4,699.2c-12.1,1.2-11.3,15.3-11.3,15.3c0.8,12.8,14,15.2,14,15.2c-3.6,9.8-13.3,12.7-13.3,12.7
	c-2.3,0.9-0.6,1.5-0.6,1.5c2.9,1,7.1-0.7,7.1-0.7c17.7-7.9,18.2-26.5,18.2-26.5C294.8,697.8,280.4,699.1,280.4,699.2 M284.8,725.1
	c-5.8,0.2-7.2-8.8-7.2-8.8c-1.5-9.9,2.3-10.4,2.3-10.4c4.1-1.3,5.8,7.1,5.8,7.1C287.8,722.7,284.8,725.1,284.8,725.1L284.8,725.1z"
	/>
<path class="st0" d="M325.1,710.6c0,0-1.6-11.8-12.6-11.6c0,0-10.9-0.3-11.4,14.8c0,0-0.4,15.9,13.4,15.2
	C314.5,729,327.9,728.2,325.1,710.6 M314.6,724c-5.2,1.9-5.8-8.7-5.8-8.7c-0.5-10.2,3.6-11.2,3.6-11.2c4.2-1,5.4,6.4,5.4,6.4
	C319.7,722.1,314.6,724,314.6,724L314.6,724z"/>
<path class="st0" d="M328.3,733.1c11.6,2.3,14.7-5.9,14.7-5.9c3.7-11.7-10.9-12.3-10.9-12.3l2.3-15c0,0,14.6,0.7,18.6-1.3
	c0,0,0.9-0.6,0.4,1.6c0,0-0.8,5-5.6,5.4l-7.2,0.6l-0.7,4.2c0,0,12.5-0.3,12.2,13.2c0,0-0.5,10.4-12.6,13c-4.1,0.7-8.4,0.2-12.3-1.4
	c0,0-1-0.5-0.5-1.3C327.1,733.4,327.7,733.1,328.3,733.1L328.3,733.1z"/>
<path class="st0" d="M285.5,451.4c0.9-1.1,2.1-0.3,3.1,0s1,2.1,1.5,3c0.3,0.7,2.1,2.5,2.3,3.1c1.5,6.8,0,15.6-3,20.8
	c-0.6,1.3-1.8,2.2-3.2,2.5c-1.3,0.1-1.7-1.8-2.1-2.5c-2-2.7-0.5-9.2,0-12.2c0.5-3.9-2.5-10.2-0.6-13
	C283.4,453,285.5,451.3,285.5,451.4L285.5,451.4z"/>
<path class="st0" d="M193.4,458.5c1.6-0.5,4,0.3,5,0l2.2-0.9c2.6-1.7,5.1-1.2,7.7-0.9c1.3,0.2,5.1,1.8,6.4,1.9
	c2.1,0.2,11.7,1.3,22,2.8c-0.1,0,5.5-0.8,4.1-2.3c0.9,1-0.2-0.8-2.2-1.6l-0.7-0.8c0.1-0.1-1.8-1.5,1.5-2.7c1-0.2,2-0.6,2.9-1.2
	c1.3-1.4-0.6-3-0.6-3c-4.9-1.6-10.3,1.5-17.6,0.7c-3.6-0.3-8.7-2.4-13.8-1.5c-5.5,1-13.6,4.1-17.5,7.1
	C192.6,456.1,190.8,459.3,193.4,458.5L193.4,458.5z"/>
<path class="st0" d="M255,418.6c5-0.3,5.2,4.9,5.3,4.3c-0.6,3.7-9.6,4-11.8,6.9c-6.3,8.2-3.7,16.1-18.6,16.9c0,0-3-0.7-1.9-1.9
	c0.9-1,4.6-2,5.9-2.8c1.9-1.1,1.8-4.2,3.1-6.1c0.3-0.5,1.9-1.1,2.3-1.5c4.2-5.7,4.7-11.4,12.1-14.8
	C252.6,419.3,253.8,418.9,255,418.6L255,418.6z"/>
<path class="st0" d="M302.8,396.5c1.7-1,3.4,0,4.5,1c0.7,0.5,6.1,13.6,6.4,14.9c0.7,4.8,1.2,15.7-0.1,19.2
	c-1.8,4.9-6.4,8.7-5.4,17.4c0.5,5.1,2.8,9.1,4.9,13.5c0.3,0.7,2.5,5.1,2.6,6c0.8,4.7-1.7,10.8-2.1,14.5c-1.1,9.4,2.6,18,1.1,27
	c-0.4,3.1-1.8,6-4,8.2l-1.7,1.4c-0.5,1-1.3,1.3-2.2,1.9l-1,1c-1.6,0.4-1.8,1.3-2.4,1.4c-4,0.9-4.9-1.5-4.6-0.9
	c-4.1-11.5,2.8-25-0.7-36.2c-0.8-2.6-3.8-5.1-4.2-7.9c-1.4-10,7.9-15.3,7.8-22c0-4.8-6.3-11-7.7-15.7c-1.8-5.6-3-16.2-0.5-23.1
	c0.6-1.7,2.8-4.5,3.3-6.7c1.1-4.3,2.9-7.9,3.5-10.7c0.3-1,0.7-2,1.2-3C301.9,397.3,302.4,396.9,302.8,396.5L302.8,396.5z"/>
<path class="st0" d="M422.1,372.6c6.8-0.8,9.8,1.9,6.6,7.6l-1.3,1.2c-0.5,0.2-2.3,2.5-2.7,2.9c-3.3,2.4-6.4,3.9-8.8,6.9
	c-0.8,1-1.5,3.6-2.6,4.5c-3.1,1.8-6.4,3.3-9.8,4.3c-8.2,1.3-19.3-6.8-20.5-11.6c-1-4,0-8,1.8-8.9c2.8-1.4,10-0.7,12.5-0.9
	c6.3-0.5,10.3-0.1,15.1-1.8C415.3,376.1,418.6,373,422.1,372.6L422.1,372.6z"/>
<path class="st0" d="M387.3,369.9c2.3,0.9,4.8,1.2,7.3,0.8c2.4-0.6,6.9-2.7,9.2-3.1c1.4-0.3,3.3,0.4,4.6,0c3.7-1.1,10.6-8.4,2.4-9.2
	c-3-0.3-11.9,3.1-14.7,3.9c-2.4,0.5-4.7,1.3-6.8,2.4c-0.6,0.4-3.8,3-3.4,2.5C385.8,367.2,383.7,368.9,387.3,369.9L387.3,369.9z"/>
<path class="st0" d="M328.5,383.7c-2.4-0.3-2.4-4.4-8.5-3.1c-4.2,0.9-5.4,7.1-11.5,6.9l-3.1-1.5c-2.7-0.6-4.6,0.3-6.9-0.9
	c-10.8-5.1,8.4-31,14.6-30.7c1.4,0.4,2.7,0.9,3.9,1.5c1.9,1.7,1.9,8.9,3.7,11.5c1.4,1.9,3.5,1.7,5.4,3.1s5.6,6.6,6.1,9.3
	C332.3,379.9,333.3,384.4,328.5,383.7L328.5,383.7z"/>
<path class="st0" d="M514.6,365.2c0,0,0,0.1,0,0.1s0,0,0,0C514.6,365.3,514.6,365.2,514.6,365.2L514.6,365.2z"/>
<path class="st0" d="M417.6,357.9c0.1-0.1,0.1-0.3,0.2-0.4C417.6,357.9,417.6,358,417.6,357.9z"/>
<path class="st0" d="M370.9,489c0,0-0.1,0-0.2,0C370.9,489.1,370.9,489.1,370.9,489z"/>
<path class="st0" d="M281.9,385.6c-4.2,2.3-13.3,5.9-15.2,10c-1.1,2.1-1.1,4-2,6.5c-0.1,0.3-1.2,0.7-1.6,1.5
	c-4.5,0-8.4-0.3-12.3,0.8c-3,0.8-7.4,4.1-10.7,4.6c-6.8,1.2-12.1-1.9-18.4-0.8c-2.9,0.5-4.7,3.5-7,4.6c-2,1-2.8,1-4.4,2.4l-1.4,1.7
	c-0.4,1-0.8,2-1.4,2.9c-1.3,2-2,4.2-2.3,6.5c-0.5,3.3-1.5,6.5-2.7,9.6c-0.6,1-3.4,3.4-3.9,4.4c-0.2,0.7-0.8,1.3,0,2.3
	c-1-1.1-0.8,1.1,4.7,1.4c6.1,0.1,19.3-3.9,19.3-3.9l6.3-3.5c1.2-1,6.2-4.7,7.2-6c4.6-5.7,17-26.7,26.7-21.2l1.7,1.2
	c2.3,3.9-0.6,14.9-2.3,17.5l-2.2,2.6c-1.7,0.5-2.9,5-3.2,7.1c-0.4,3.3,0.6,6.3,0.8,8.1c0.5,4,0.9,9-1.5,13.9
	c-1.2,1.5-1.7,3.4-1.6,5.3c0.4,3,4.7,5.2,5.3,7.7c0.4,1.2,1.5,1.5,0,3.8c-0.8,1.3-4.3,3.5-5.3,4.6c-1.4,1.4-0.2,3.6,0.7,4.5
	c2.7,2.4,4.8,2.7,6.9,5.5c2.9,3.8,2.8,7.1,9.2,7.7c5.1,0.5,12.3,0.7,9.2-6.2l-1.5-2.6c-1.8-4.5-5-8.6-5.4-13.5
	c-0.6-6.3,4.5-9.5,2.4-14.6c-1.7-3.9-9.4-3.5-10-8.5c-0.3-2.8,2.5-8.8,3.1-11.5c0.6-3.7-0.4-6,0.8-9.2c0.8-2.3,4.1-4.8,4.5-7.6
	c0.7-5.1-3.2-8.3-1.5-13.8c0.8-2.9,5.3-2.5,7-4.6c2.1-2.9,1-6.8,2.3-10.8c0.1-0.5,1.2-2.9,1.5-3.3c0.2-1.7,0.5-3.4,0.9-5.1
	C284.1,384.5,282.1,385.7,281.9,385.6 M233.2,426.2c-4.3,1-4.7-8.2-15-4.6c-1.4,1-2.6,2.1-3.7,3.3c-1.2,2.7-0.6,9.7-1.9,10.4
	c0,0-4,1-3.2-4.1c1.2-8.1,2.8-9.6,6.9-13c0.9-0.7,1.8-1.3,2.9-1.8c4.9-1.1,13.9,0.8,15.5,3.2C236.1,421.7,233.1,426.2,233.2,426.2
	L233.2,426.2z"/>
<path class="st0" d="M514.6,365.3c-0.7-3.8-10.9-3.5-15-8.5c-1.5-2-0.4-3.1,0-4.6c1.1-4.4,10.5-1.8,12.7-5.7
	c0.9-1.6,1.2-6.5,0.6-7.1c-5.8-7.2-18.2-3.8-26.9-7.2c-4.2-1.7-9.4-5.2-13.8-6.9c-5.5-2.1-9.8-2.5-15.4-4.6c-1.3-0.5-3.7-2.3-5-2.9
	c-6.2-2.5-11-3-17.2-5.6c-0.7-0.3-2.6-1.3-3.4-1.7c-2.5-1-3.2-1.2-5.8-2.1c-9.5-3.5-21.6-6.5-35.4-5.6c-6,0.3-13-0.8-22.3,1.9
	c-3.2,0.8-7.7,3.6-10.7,4.5c-2,0.5-4,1.1-5.9,1.9c-2.7,1.1-5,2.6-8.7,3.5c-10.5,2.4-24.6-0.2-35.3,1.6c-9.3,1.5-14.6,7.3-22.3,10
	c-2.3,0.8-3.3,0.5-5.6,1.4c-1.9,0.5-3.7,1.2-5.6,1.9c-3.2,1.6-5.3,2.1-8.9,3.6c-1.8,0.8-3.9,2.5-5.7,3.3c-1.7,0.9-3.4,1.9-4.8,3.2
	l-1.7,1.3c0,0-3.8,3.3-4.2,3.9c-1.5,1.6-2.9,3.7-4.2,5.3c-4.4,5.1-9.3,9.7-14.6,13.8c-1.8,1.3-3,1-4.6,2.3c-1.8,1.4-3.4,2.9-5.2,4.2
	c-4,2.9-8.1,4.8-12.5,7.2l-2.9,1.9c-3.8,2.5-3.6,3.5-7.5,5.9c-2.6,1.7-3.6,4.4-6,6.3c-1.5,1.2-3.3,5-4.4,6.5
	c-4.8,7.1-6.6,17.5-10.1,26.2c-1,2.5-9.4,14.6-11.5,15.4l-1.5,1.5c-0.8,0.8-1.6,1.6-2.3,2.4c-2.5,2.2-5,3.5-6.9,6.2
	c-1.6,2.1-2.5,4.5-3.9,6.9c-2.2,3.6-5.8,7.6-7.7,11.6c-0.7,1.4-1.3,2.8-1.8,4.3c-0.2,0.2-0.4,0.5-0.4,0.5c-0.9,1.2-2.6,6.2-2.6,6.2
	c-1.7,4-5.8,6.2-11.1,13.8c-6.3,0.5-27.9-5-42.6-12c3.3,3.7,19.8,14.7,39.1,16.9c-1.3,1.9-1.4,3.8-3.7,4.4
	c-7.7,1.9-21.2-2.3-39.2-8.6c1,2.5,16.9,11.8,40.4,13.2c-3.5,4.1-35.8,3.1-60.9-3.8c-1,2.6,31.5,9.9,49.3,9.6
	c-3.1,1.6-11.1,3.4-16.2,5.2c-8.1-0.9-19.5-2.3-21.7-3.1c0.5,1.6,8.5,3.8,15.2,5.3c-6.4,2.3-15.9,3.6-19.5,4.4
	c2.7,0.7,13-1,23.8-3.6c9.5,1.8,24,3.7,31.9,3.3c-2,1-9.5,5.8-15.4,9.3c-15.2,1.4-31.6,2.7-35.2,3.1c2,0.3,15.3,0.5,29.4,0.2
	c-8.6,5.1-17.8,10.3-22.3,12.4c6.6-1.7,18.3-6.2,30.3-12.6c11.9-0.4,23-1.4,27.7-3.1c-1.6,3.5-11.2,20-20.1,23.9
	c3.9-0.6,16.3-4.1,23.8-22.9c2.9,1.2,6.1,1.9,9.2,2c2,3,6.7,10.6,15.6,11.1c1.8,5.1,18.2,32,41.4,21.5c-6.7-3.6-10.7-7.4-14-18.1
	c10.3-0.7,37.4,14.2,45.6,46.5c-6.4-2.2-14.4-5.9-15.3-9.1c-1.8,7.5-2.9,17,13.5,33.7c0.3,3.5,0.3,7.8,1,11.8c2.7,2.9,5.9,5,8.8,7.4
	c0.2,4.7-0.4,11.1,11.8,14.7c4.2,3.5,17.6,7.1,19.5,9.4c4,1.3,9.9,1.5,14.2,1.3c0,0,5.8-1,7.4-3.2c2.9-0.1,6.9-0.2,24.6-19.2
	c3.7-4.5,0-29,0.9-34.9c1.8-4.3,2.5-8.3,4.9-13.6c0,0,2.4-5.2,7-7.3c0.3-0.1,0.6-0.2,0.9-0.3c10.2-2.3,23.6,7.3,29.9,10
	c2.3,0.9,3.5,0.4,5.4,1.6c0.9,0.5,2.2,2.6,3.1,3.1c2.3,1.2,4.4,0.9,6.9,2.3c3.7,2,11.1,12.8,17.6,11.6c2-0.5,3.6-5.1,5.4-6.2
	c3-1.9,7.3-1.7,10-3.8c3.1-2.5,1.8-5.2,2.3-8.5c0-0.1,1.5-1.7,1.6-2.4c1.5-0.2,4.9,0,6.9-0.7c0.6-0.5,1.1-1,1.5-1.5
	c1.3-1.4,0.4-2.8,0-4s-3.6-2.7-4.6-3.8c-2.3-2.3-6.3-5.6-7.7-8.4c-0.7-1.4,0.2-1.7-0.8-3.2s-3.7-3.2-4.5-5.3
	c-3-6.6-1.8-21.3-3.1-23.3s-2.7-1.7-3.9-3.6c-2.5-4,0.6-17.1,0.8-22.3c0.2-4.2-3.8-1.6-3.8-1.6c-3.4,8.3-3,12-3.8,23.8
	c-0.1,1-1.6,7.4-1.6,8.5c0,4.1,2.4,11.2,0.7,16.1c-0.5,1.6-3.9,4.7-8.4,4.6c-1.7,0-10.3-2.2-12.3-3.1c-0.4-0.2-2.2-2.3-2.3-2.3
	c-4.3-3.4-5.2-0.2-5.4,1.5s0.6,2.1,1,3.1c0.1,1,1.9,4.7,1.7,5s-1.6,4.4-9.5-0.3c-6-3.6-12-13.7-12.3-15.4c-0.6-2.7-0.2-5.6,1.1-8.1
	c3-2.7,6.6,1.1,9.6,2.7c1.1,0.8,2.3,1.4,3.5,1.9c1.7,0.1,3.4,0,5-0.3c11.7-0.7,23.8,3.5,25.8-4.3c1.3-4.9-3.5-7.6-4.4-9.6
	c-1.1-2.5-0.5-2.7-1.2-5.4c-0.1-0.2-0.9-2-1.1-2.2c-1.2-2-0.3-3.8-1.5-6.1c-1.2-2.5-4.7-4-6.1-6.2c-2-2.8-2-6.4-4.7-8.5
	c-3.9-3.2-19.7-7.9-21.5-11.6c-3-5.8,0.7-16.5-0.7-23.8c-0.5-3.5-2.2-6.8-4.9-9.2c-1-1-1.5-2.5-1.1-3.9c0.7-2.6,2-1.9,2.8-7.6
	c0.5-3.1-0.3-6.7,0-10c0-0.5,1.5-5.6,1.6-6.1c0.6-8-0.1-16-2.3-23.8c-0.9-3-3.7-5.6-4.6-8.5c-0.8-2.4,0.1-3.8-0.8-6.2
	c-0.8-2.1-3.5-3.6-4.5-5.3c-2.1-3-1.5-8.2-4.6-10c-2.3-1.3-3.2,0.5-3,0c-0.8,2.8-0.6,5.6,0.8,9.2c0.6,1.6,3.4,3.8,3.9,5.4
	c0.6,2.8-0.5,6.3,0,9.2l1.5,3.1c1.2,7.7-3,18-6.1,22.2c-2.2,2.9-8.8,6.5-9.2,10.8c-0.3,2.6,0.8,2.8,1.4,3.9c1,1.4,4.2,3.2,4.6,4.6
	c0.4,1,0.8,0.8,1.1,1.8l0.4,2.1c0.5,5.4-6.5,6.6-3.1,13c1,1.9,4.2,1.9,6.1,3c3.5,2.2,10.1,8.4,10.8,13.8c0.3,2.3,0,14.7-0.7,16.2
	c-1.6,3.4-10.2,4.8-9.2,11.5c1.1,7.4,20.6,5.3,26.1,9.2c2.6,1.8,3.1,5.8,3.9,9.3c0.5,1.9-1.5,2.5-2.3,3c-2,1.2-3.5,0.3-6.1,0.8
	c-6.4,1.3-16.5,4.1-19.1,9.2c-3.3,5.9,0.6,13.9-0.8,20.7c-1.4,6.1-6,13.5-9.3,18.5c-2,3-4.6,6-5.6,10.2c-2.3,9.1-0.7,19.8-1.3,30.4
	l-0.1,0.1c0.1,3.5-1.1,6.9-3.3,9.5c-4.2,4.6-18.8,18.3-29.2,18.3c-3.8-0.1-5.4-1.4-9.6-4.4c-2.6-0.2-8.7-1.7-12.2-5.4
	c-1.1-2-12.6-13.6-5.4-16.9c6.8-3.1,17.7,3.7,22.8,7c2.1,0,16.9,0.7,32.6-19.9c-0.8-10.8-1.6-24.6-2.8-27.2
	c-1.6-5.3-10.6-14.7-12.5-20.3c-1.2-4.6-3.3-13.5-2-19.7c-0.6-6.9-5-8.4-6.8-14c-0.3-1.1-0.8-2.1-1.4-3c-0.4-2-1.1-3.9-2.1-5.7
	c-2.8-4.2-5.4-5.1-7.9-9.2s-2.2-9.5-6.2-12.3c-2.2-1.5-5.2-1.6-7.7-3c-1.8-1.1-4.1-3.7-6.1-4.6c-2.4-1.1-3.1-1.4-5.6-2.5
	c-1.2-0.6-3.4-1.6-4.4-2.1s-2.2-0.1-3.1-0.8c-2.9-2.5-0.8-4.8-2.3-9.2c-0.1-0.5-1.3-0.6-1.6-1.5c-1.2-0.3-3.4-2.3-5.1-1.1
	c-2.3,1.7-2.9,1.2-4.4,4.7c-0.8,2.3-2.4,9.1-4,10.8c-1.5,2.1-3.3,4-5.3,5.6c-1.2,0.6-2.5,0.9-3.8,0.9l-5.8,0.8l-2.9,4.4
	c0,0-3.1-0.4-4.8-0.4c-0.5,1.1-4.3,4-5.5,5c-4.9,2.8-7.8,0.8-8.2-0.2s-1.8-2.9,1.5-4.8c11.3-3.2,25.1-18.2,26.2-21.5
	c-1.4,2.2-24.7,15.1-29.1,16.8c4.6-11,33.2-27.1,34.9-29c-7.3,1.1-31.6,15.8-35.9,22.3c-4,6.5-8.8,4.7-13.3,4.5s-4,4.6-4.2,7.4
	c0,2.8-2.2,8.5-0.4,9.5c3,2.5,10.9-7.9,13.4-2.3c1.4,6.2-14.8,6-14.7,11c-0.8,2.7,14.9,3.6,17.8,6.4c-5,3.7-17.4,4.9-21,5
	c-1.8,0.2-3.7,0.1-5.5-0.1c-2-0.3-4.7-2.2-7.1-6.1c-4.5-8.1,3.1-13.7,3.2-15.8s-0.9-1-1-4.4s3.7-4,4.7-4.7s-0.3-1.7,0-5
	c2-7.5,14.2-16.1,11-18.5c-2.8-1.5-8.7,5-11,8c-8.4,10.8-18.2,7.4-21.5,7.6c-7.4,0.4-6.1-7.7-0.9-7.1c5.9-1.2,5.5-9.5,9.8-8.6
	c1.4,6-5.3,6.9-2.2,8.2c4.2,1.7,4.7-3.9,6-6.2s7.3-7.5,6.6-8.8c-1.8-0.6-6.2,2.5-8.1,4.1c-4.9-12.1,7.4-21.4,8-25
	c4-6.3,26.5-14.5,26.9-24.1l0.6-0.5c0,0,0.4-0.2,1.1,0.9h0c0.1,0.6,0.3,1.2,0.4,1.9c0,0.5,0,1,0,1.5l0.1-1c0.2,1.5,0.1,2.8,0.2,2.5
	v1.5c0.2,0.9,1.3,1.3,1.5,1.4c1.1-0.3,2.1-0.9,2.9-1.8c0.2-0.2,1.5-1.4,1.5-1.7c1.6-1,3-2.4,4-4c3.9-5.6-3.6-13.9-1.5-21.5
	c1.4-5,6.1-11,6.1-11c1.3-2.9-0.7-2.9-0.7-2.9c-1.8-0.2-3.6,0.7-4.6,2.2c-3.8,3.6-5,5.3-7.7,10.1c0,0-2.3,2.1-3-0.8
	c-1.3-4.8,4.1-14.1,5.7-15.3c3.2-2.2,6.4-3.1,10.3-4.7c2-0.8,5-4,6.9-4.5c1-0.4,2.1-0.4,3.1,0c0,0,1.5,1.1,0.8,4.5
	c0,0-1.5,4.2-1,5.7c0.3,1,0.2,2,2.5,2c5.5,0.1,17.9-1.2,21.5-3.1c0.8-0.3,1.6-1.5,2.3-2.2c1.1-1.2,0.9-2.9,0-3l-2.3-0.8
	c1.8-0.2-10.4-0.3-8.4-0.7c-2.2,0.4,2.9-5.7,2.3-8.6c-0.2-1.3-2.6-1.9-3.1-3c-0.2-0.7-1.5-1.7,0-2.3l1.8-0.8
	c0.6-0.6,1.3-1.1,2.1-1.5c3.9-1.8,10.8-0.9,13.8,0c0.3,0.1,5.3,1.5,7,6.1c0.3,1.4,0.8,2.7,1.5,3.9c2.3,3.2,9.1,4.3,13.1,0.5
	c0.9-1.1,1.7-2.3,2.4-3.6c3.9-9-1.9-15.2-9.3-17.7c-3-1.1-7.8-1.4-11.5-2.3c-2.6-0.7-1-2.9-0.3-3.6l1.1-1c1.5-2.1,6-4.1,7.7-4.6
	c4.1-1.5,8-3.1,13.8-0.7c0.9,0.3,3.1,2.1,3.8,2.2c4.4,1.1,6,1.4,10.1-0.7c1.6-0.8,1.4-1,1.5-1.5c1.4-4.1-1.4-6.9-1.3-6.4
	c-0.8-5.5,15,1.3,17.4-2.2c2.3-3.2,0.8-9.2,3.9-11.5c0.3-0.2,2.1-1.5,2.3-1.5c2.9-0.6,5.5,0.6,7.9,1.5l2.5,1.2c5,2.1,9.3,3.2,12,7.2
	c1.7,2.7,1.4,6.5,3,9.3c0.7,1.1,2.3,1.9,3.2,3.1c0.9,0.8,1.9,1.5,3,1.9c1.2,0.8,2.5,1.4,3.8,1.9c1.4,0.5,3.3,2.6,4.6,3.1
	c4.7,1.9,10.3,1.6,15.4,1.5c3-0.1,4.8,1.6,7.7,0.8c1.5-0.5,1-3.1,0.1-4.2c-1.8-2.3-3.2-1.8-6.3-3.5c-1.2-0.7-2.7-3.1-3.9-3.8
	c-3.5-2.3-8.6-2.6-10.7-6.2c-0.4-0.7-0.6-1.5-0.7-2.2l-0.9-1.6c-4.2-8.6-5.6-13.7-1.5-15.3c2.5-1,8.1-0.4,10.8-1.5
	c0.6-0.4,1.8-2.1,2.2-2.3c6.1-2.9,17.6-6.3,23.8-3.1c1.9,0.9,0,5.8,0.7,7.7c0.8,1.3,2,2.3,3.4,2.7c13.2,3.5,26.4,3,36,7.5
	c5.8,2.7,10.2,7,15.4,11.5c4.5,4-0.8,8.5,3.8,9.8c-3.2,0.4-5.8,0.8-6.4-0.9c-0.4-0.8-0.9-1.6-1.5-2.3c-3.5-3.3-7.5-8.3-12.3-10
	c-2.5-0.9-3.6-0.1-6.2-0.8l-3.1-1c-3.3-0.9-3.6-0.6-6.9-1.3c-1.4-0.3-4.7-2.1-6.2-2.2c-6.5-1-10.2,1.7-16.2,0
	c-2.8-0.8-6.3-5.2-8.5-6.3c-2.8-1.6-5.3-2.1-8.4-3.1c-0.9-0.4-1.9-0.3-2.8,0.1c-1.7,1-1.1,2.5-0.3,3.8c0.5,0.7,1,1.8,1.5,2.2
	c2.2,1.6,6.5,1.6,7.7,3.8c3.4,6.7-1.6,9-2.3,11c-0.4,1.2-1.3,2.2,0,3.8c0.9,0.9,1.9,1.7,3.1,2.3c3.1,1.3,5.6,0.8,8.5,2.3
	c2.1,1.1,4.2,4.8,6.9,5.4c6.2,1.3,7.6-3.2,10.7-3.9c4.5-1,7.2,1.4,12.3,0c1.7-0.5,2.6-2.4,3.8-3c3-1.6,5.9-1.8,7.7-0.8
	c0,0,2,0.9-0.8,2.3c-1.6,0.9-2.9,0.9-4.6,1.7c-0.9,0.6-1.7,1.5-2.3,2.4c-0.4,0.9-0.7,1.8-0.9,2.8c0.4,0.7,0.9,1.2,1.6,1.6
	c5.4,1.9,10.8-1.6,15.4-2.3c3.4-0.5,12.9,0,15.7,2.1c0,0,2.5,0.5,0.9,5.1c-1,2.8-5.4,4.8-7,7.1c-1,1.3-2,3.9-3,5.1
	c-1.6,2.1-1.9,2-3.5,4l-1.2,1.7c-0.7,2-8.5,8.6-10,10.9c-0.9,1.3-1.3,2.7-2.2,4.1c-1.4,2-2.4,2.3-3.2,3.5
	c-2.2,3.2-6.6,9.8-10.3,11.5c-1.6,0.7-3.9-0.1-6.2-0.5c-1.5-0.4-3.2-3.3-4.6-3.9c-5.4-2.5-11.4-1.7-16.1-4.6
	c-2.4-1.4-4.5-5.6-6.2-7.7c-1.1-1.4-2.1-4-3.8-4.7c-2.8-0.9-9.4-0.1-10.7,2.3c-2.5,4.8,4.1,17.2,4.6,22.3c0.4,4.3-1.6,6.3,0,9.9
	c0.7,1.9,3.6,2.3,4.6,3.8c4.2,6.6,0.5,15.8,1.5,24.6c0.4,2.7,2,6.1,1.5,10c-0.6,6.1-8.5,11.4-5.3,20.7c0.1,0.4,1.6,1.5,1.7,1.6
	c1.4,0.5,3,0.5,4.4,0c2.6-0.9,5-6,7.7-7.7c0.5-0.4,1-0.7,1.6-0.8c0.3-0.5,1-0.6,1.4-0.8c1.1-0.9,1.6-0.9,2.3-2.3
	c1.1-2.5,0.7-5,1.5-8.5c0.8-2.9,3.5-8.1,3.9-11.5c0.9-9.4-5.9-27.8-1-30.8c1.9-1.2,3.7-3.4,7-3.9c1.4-0.3,6.1,1.1,8,1
	c0,0.1,0,0.1,0,0.1c-2.5,5.9,6.7,21.2,6,29.7c-1.8,20.7-15.3,32.1-26.9,43.1c-1.3,1.3-0.2,2.8,0.8,3.8c2.3,2.2,7.9,1.2,10.8,0.8
	c4.2-0.9,6.1-2.8,9.2-3.8c1.1-0.5,2.5,0.3,3.8,0c3.2-0.9,5.9-5.2,7.7-7.8c0,0,3.8-4,4.6,1.3l0.1,0.3c0,5-0.9,10.5,0,15.3
	c0.9,5.8,11.4,23.1,16.9,23.9c12.8,1.9-0.3-14.2-0.8-15.4c-2.1-4.9-4.1-13.6-3.8-20c0.1-2.3,2-7.1,2.3-9.3c0.1-1.1-0.4-3.7,0-4.5
	c1-2,7.8-2.7,9.3-5.4c0.4-0.8-0.2-2.2,0-3c0.5-2.5,1.6-4.9,3.1-6.9c0.9-1.1,2.2-1.8,3.8,0c1.3,1.5,1.7,4.9,3.9,7.4l1.9,2.1
	c2.3,1.5,6-0.5,5-0.3c2.4-0.7,2.1-3.1,3.1-3.9c0.5-0.3,1-0.5,1.5-0.7c5.5-5.7-6.8-10.9-6.9-16.2c-0.1-5.9,1.3-12.7-0.7-19.2
	c-0.5-1.6-3.5-3.9-3.9-5.4c-0.8-3.7,1.1-7.6,1.5-10c0.9-4.9-0.8-12.5,0.8-14.6c0.9-1.2,2.4-2,5.3-1.5c2,0.4,3.3,3.5,4.6,4.6
	c5,4,10.9,6.3,19.2,5.3c1,0,1.9-1.6,2.1-2c0.6-1.6,0.4-3.4-0.5-4.9c-3-4.1-14.7-7.1-15.4-9.2c-0.5-1.5-2.3-3.5-0.3-4.5
	c-1.1,0.6,7.2-0.2,10.2-0.9c3.9-0.9,4.2-4.7,6.9-6.1c3.8-2,9.4-0.2,11.6-3.8c1.2-2.3,0.3-5.6,1.5-7.7c1.5-2.7,6.1-3.3,8.4-5.4
	C515.2,368.5,514.8,366.1,514.6,365.3 M205.8,545c-1.5-1.7-0.2-4.9,2.5-6.3c5.1-2.4,7.2,0.4,8.4,1.7c5,7.7,11.4,17.8,16.2,21.7
	C228.5,562.6,211.9,557.5,205.8,545 M248.1,622.7c-2.7,0-19.8-14.4-17.2-23.3c5.1,3.7,16.4,11.7,17.9,11.5
	C250.3,611.8,251.5,621.7,248.1,622.7 M267.9,622.7c-2.2-2-18.8-19.5-14.7-27.6c4.5,4.6,17.2,16.2,21.7,17.3
	C276.3,615.8,276.1,624.9,267.9,622.7 M269.7,555.8c2.9,4.3,6.9,6.9,6.7,16.3c-0.3,2.3,0.5,2.7,2.4,2.6c1.7-0.5,0.8-11.3,6-10.6
	c4.5,0.7,1.4,6.9,3.6,13.8c0.8,2.5,5.9,11.4,4.5,26.7c-0.1,3.9-7.6,9.1-11.9,6c-3.5-2.1-3.5-4.7-5.5-20.9
	c-0.9-9.5-12.5-12.8-17.4-17.1c-4.9-3.6-2.1-5.4-3-12c-2.8-9.6-14-14-10.3-20.4c1.2-1.6,2.3-3.1,5.8-1.7
	C250.9,543.1,262.2,546.8,269.7,555.8 M190.5,525.6c-0.3,0.1-0.3,0.2,0.1,0H190.5c1.1-0.5,6.1-2.8,7.4-3.3c5.2-1.8,8,1,12.9-1.7
	c1.1-0.7,2.4-2.5,3.5-3.4c0.9-0.8,2.6-0.7,3.6-1.5c2.7-1.8,7.7-7.5,11.1-8.1c2-0.4,2,0.1,3,0.2c0,0.2,1.5-0.3,1.1,2.7
	c-0.9,5.7,12.5-0.1,21.2,2c6,1.4,11.8,3.5,10.2,7.3c0.2-0.4-1.8,1.2-2.2,1.5c-4.1,3-7.3-0.3-9.4-0.6c-3.6-0.4-6.1,0.7-9.8,0.2
	l-4.4-1.5c-2.8-0.1-6.8,1.3-8.9,1.5c-4,0.3-6-1.1-9.6-0.7c-1.8,0.2-4.6,2.5-5.9,3s-2.6,0.9-3.7,1.2c-1.3,0.5-2.5,1.1-3.7,1.7
	c-3.7,1.8-5.9,1.8-10.4,3l-2.6,0.7C188.2,530.5,188.8,526.6,190.5,525.6 M176.8,547.6c6.1-1.4,7.8,0.2,10.7,7
	c2.1,4.1,6.6,9.5,8.4,12c-7,0.8-18.1-8.7-21.2-13.9C172.8,550.1,175.8,548.1,176.8,547.6 M99.8,518.7c8-2.2,15-4.5,17.9-6.2
	c1.1-0.1,2.1-0.1,3.2-0.2c0.5,2.3,1.3,4.4,2.5,6.4c0.3,0.5,0.6,0.9,0.8,1.2C119.4,520.1,109.7,519.5,99.8,518.7 M116.4,532.6
	c4.1-2.5,8-5.1,11.7-7.8c1.7,2,3.6,3.9,5.6,5.6C131.6,530.9,124.8,531.8,116.4,532.6z"/>
<path class="st0" d="M190.5,525.7h0.1C190.2,525.9,190.3,525.9,190.5,525.7z"/>
<g>
	<path class="st0" d="M173.1,80.6c-5.4,6-8.1,13.7-8.1,23c-0.1,8.6,2.7,17,8.1,23.7c5.8,7.2,13.2,10.9,21.9,10.9v0
		c8.7,0,15.9-3,21.3-9c5.2-5.9,7.9-13.5,7.9-22.6c0-9.4-2.6-17.5-7.8-24.2c-5.6-7.2-12.9-10.8-21.7-10.8
		C185.8,71.7,178.5,74.6,173.1,80.6z"/>
	<path class="st0" d="M508,77.5c-1.5,3.7-10.1,25.5-10.9,27.7h21.6C517.8,103,509.4,81.2,508,77.5z"/>
	<path class="st0" d="M595.3,453.9V22.4H2.2v431.8c-0.1,6.3-0.4,158,107.6,248l-0.2-0.2c3.4,3,84.2,73.8,184.6,117.1l2,0.8h5.4
		l2.1-1c96.6-44.8,184.8-116,185.7-116.7C597.4,612.1,595.4,460.4,595.3,453.9z M22.8,232.7h550.8v4.2H22.8V232.7z M72.1,217.2h1
		c9.1,0,10.8-4,10.8-11.4v-24.7h4.8h0.4v24.8c0.1,2.1-0.1,4.2-0.4,6.3c-0.4,2.2-1.3,4.2-2.8,5.8c-2.6,2.8-6.4,4.3-11.2,4.3h-4.5
		c-4.8,0-8.5-1.5-11.2-4.3c-1.5-1.6-2.4-3.6-2.8-5.8c-0.3-2.1-0.4-4.2-0.3-6.3v-24.8h7v24.7C63,213.3,66.1,217.2,72.1,217.2z
		 M120,221.2V181h6c0,0,21.7,27.6,23.2,29.5c0-2.3,0-29,0-29v-0.4h0.1h5.3v40.1h-5.8l-23.6-30c0,2.4,0,30.1,0,30.1H120z
		 M184.2,221.2v-40.2h6.5h0.4l0,40.2H184.2z M213.9,181.1h7.9c0,0,10.5,29.3,11.3,31.5l11.5-31.5h0h6.1l-15.5,40.2h-6.3L213.9,181.1
		z M293.4,196.8v5.2h-12.9h0v13.5h18.8l-0.2,5.7h-25.6v-39.7V181h23.3v5.4h-0.4c-0.2,0-13.1-0.1-15.9,0v10.4H293.4z M351.4,212.1
		L351.4,212.1c2.4,3.1,5.2,5.9,8.5,8.2l1.2,0.8h-5.8c-2.8,0.2-5.5-1-7.2-3.2l-14-18l0.7-0.1c6.7-1,9.9-3.6,9.9-8.1
		c0.1-1.7-0.6-3.3-2-4.3c-1-0.7-3.6-1.5-10.1-1.5v26.3c-0.1,2.7,0,5.5,0.2,8.2v0.6h-7.1V181H339c3.9,0,7.1,1,9.4,2.9
		c2.2,1.7,3.4,4.4,3.3,7.2c0,2.7-1.1,5.2-3,7.1c-1.6,1.6-3.5,2.8-5.6,3.5L351.4,212.1z M394.4,204.9l-8-3.9l-2-1
		c-3.7-2.4-5.5-5.5-5.5-9.2c-0.1-3.5,1.9-6.8,5-8.4c3.2-1.7,6.8-2.6,10.4-2.5c3.1,0,6.1,0.4,9,1.4l0.3,0.1v7.1l-0.7-0.6
		c-1.9-1.5-5.5-2.5-9-2.6c-1.8-0.1-3.5,0.2-5.1,1c-1.5,0.7-2.4,2.2-2.4,3.8c0,2,1.7,4,5.1,5.7l4.6,2.3l5.4,2.7l0,0
		c3.7,2.4,5.5,5.2,5.5,8.4c0.1,3.6-1.5,7-4.3,9.1c-3,2.4-7.2,3.7-12.1,3.7c-3.7,0-7.4-0.6-10.9-1.8l-0.3-0.1l-1-7l0.8,0.5
		c3.7,2.1,7.8,3.2,12.1,3.2c1.9,0,3.7-0.5,5.3-1.5c1.7-0.8,2.7-2.4,2.8-4.3C399.5,208.8,397.8,206.7,394.4,204.9z M435.5,212.4
		v-22.5v-8.9h6.5h0.4v0.4v8.4v22.5v8.8h-6.9L435.5,212.4z M468.8,186.2v-4.8v-0.4l29.6,0v5.3H487c0,0.9,0,35,0,35h-6.9v-35
		C479.2,186.2,468.8,186.2,468.8,186.2z M513.9,180.9h8c0,0,10.1,15.9,10.8,17c0.8-1.1,11-16.9,11-16.9l6.7,0c0,0-15,22.4-15,22.7
		c0,0.3,0,17.5,0,17.5h-6.9c0,0,0-17.3,0-17.5C528.2,203.4,513.9,180.9,513.9,180.9z M574.7,455.1c0,12.8-2.3,151.1-98.5,231.2
		c-0.8,0.6-84.7,68.3-177.5,112.2C203,756.3,124,687.2,123.2,686.4l-0.2-0.2C24,603.8,22.8,459.7,22.8,454.4V259.3h551.8V455.1z
		 M574.9,166.5H24v-4.2h550.8V166.5z M102.5,63.2h14.5l-1.7,1.8c0,0-28.6,35-29.6,36.2l29.3,32.5c3.6,3.9,7.5,7.5,11.8,10.6l0,0.1
		l1.1,0.9l2.9,2h-12c-7,0-12-1.9-14.8-5.7l-33.6-37.4v43H55.7v-84h14.5V103L102.5,63.2z M227.4,73.9c8,8,12.5,18.9,12.3,30.2
		c0,12.8-4.5,23.6-13.3,32.2c-8.5,8.4-20,13-32,12.9c-12.4,0-23.1-4.2-31.7-12.4c-8.8-8.4-13.3-19.2-13.3-32
		c-0.1-11.8,4.8-23.2,13.5-31.2c8.9-8.6,20-12.9,32.7-12.8l0,0C208.1,60.8,218.9,65.2,227.4,73.9z M333.5,128.2L333.5,128.2
		c5,6.6,11.1,12.4,17.8,17.3l2.5,1.7h-12c-6.6,0-11.7-2.2-15.2-6.6L297,102.8l1.6-0.2c14-2.1,20.8-7.7,20.8-17c0-4-1.4-6.9-4.2-9
		c-2.1-1.5-7.6-3.2-21.3-3.1v55.3c0,10,0,14.4,0.4,17.2v1.3h-15V62.9h28c8.4,0,15,2,19.9,6c4.6,3.7,7.2,9.2,7,15.1
		c0,5.6-2.3,11-6.3,14.9c-3.3,3.3-7.4,5.8-11.8,7.3L333.5,128.2z M425.8,96v11h-27h0v28.4h39.5l-0.2,11.8h-53.9V63.9V63h48.9v11.2
		h-0.9c-0.4,0-27.5-0.1-33.4,0V96H425.8z M468.4,147.2l34.3-84.3h13.5h0.6l34.4,84.3h-16.1c0,0-11.4-29.8-11.8-30.9H493
		c-0.4,1.2-11.6,30.9-11.6,30.9H468.4z M574.9,48.6H24v-4.2h550.8V48.6z"/>
</g>
</svg>
