<?xml version="1.0"?>
<svg xmlns="http://www.w3.org/2000/svg" xmlns:xlink="http://www.w3.org/1999/xlink" xmlns:svgjs="http://svgjs.com/svgjs" version="1.1" width="512" height="512" x="0" y="0" viewBox="0 0 32 32" style="enable-background:new 0 0 512 512" xml:space="preserve"><g><path xmlns="http://www.w3.org/2000/svg" d="M28,11.142V2a1,1,0,0,0-1.3848-.9229l-6,2.5a1,1,0,0,0,0,1.8458L26,7.6665V11H10a1,1,0,0,0-.8,1.6A4.0356,4.0356,0,0,1,10,15a4.1425,4.1425,0,0,1-.5595,2H6a1,1,0,0,0-.8,1.6A4.0356,4.0356,0,0,1,6,21a4.1425,4.1425,0,0,1-.5595,2H2a1,1,0,0,0-.8,1.6A4.0356,4.0356,0,0,1,2,27a4.034,4.034,0,0,1-.8,2.4A1,1,0,0,0,2,31H19a4.0045,4.0045,0,0,0,4-4,3.9533,3.9533,0,0,0-.5565-2H23a4.0045,4.0045,0,0,0,4-4,3.9533,3.9533,0,0,0-.5565-2H27a3.9916,3.9916,0,0,0,1-7.858ZM23.6,4.5l2.4-1v2ZM19,29H3.6548A6.1005,6.1005,0,0,0,4,27a5.9445,5.9445,0,0,0-.3457-2H19a2,2,0,0,1,0,4Zm4-6H7.6548A6.1005,6.1005,0,0,0,8,21a5.9445,5.9445,0,0,0-.3457-2H23a2,2,0,0,1,0,4Zm4-6H11.6548A6.1005,6.1005,0,0,0,12,15a5.9445,5.9445,0,0,0-.3457-2H27a2,2,0,0,1,0,4Z" fill="#ffffff" data-original="#000000"/></g></svg>
