<?xml version="1.0" encoding="utf-8"?>
<!-- Generator: Adobe Illustrator 25.4.1, SVG Export Plug-In . SVG Version: 6.00 Build 0)  -->
<svg version="1.1" id="레이어_1" xmlns:svgjs="http://svgjs.com/svgjs"
	 xmlns="http://www.w3.org/2000/svg" xmlns:xlink="http://www.w3.org/1999/xlink" x="0px" y="0px" viewBox="0 0 512 512"
	 style="enable-background:new 0 0 512 512;" xml:space="preserve">
<style type="text/css">
	.st0{fill:#FFFFFF;}
</style>
<g>
	<g>
		<g>
			<path class="st0" d="M382,63.5v-45h-30v45H161v-45h-30v45H59.9C43.4,63.5,30,76.9,30,93.4v370.2c0,16.5,13.4,29.9,29.9,29.9
				h392.2c16.5,0,29.9-13.4,29.9-29.9V93.4c0-16.5-13.4-29.9-29.9-29.9H382z M452,463.5H60v-280h392V463.5z M452,153.5H60v-60h392
				V153.5z"/>
		</g>
	</g>
	<g>
		<g>
			<path class="st0" d="M362.9,299l-6.4-19.9l-62.2-9l-27.9-56.5h-20.7l-27.9,56.5l-62.2,9l-6.4,19.9l45,43.8l-10.6,61.6l17.2,12.5
				l55.3-29.1l55.3,29.1l17.2-12.5l-10.6-61.6L362.9,299z M285.7,332.4l7,40.8L256,353.9l-36.7,19.3l7-40.8l-29.7-28.9l41-6
				l18.3-37.1l18.3,37.1l41,6L285.7,332.4z"/>
		</g>
	</g>
</g>
</svg>
